%TF.GenerationSoftware,KiCad,Pcbnew,(6.0.0)*%
%TF.CreationDate,2022-11-12T11:45:22+03:00*%
%TF.ProjectId,RoBEC,526f4245-432e-46b6-9963-61645f706362,rev?*%
%TF.SameCoordinates,Original*%
%TF.FileFunction,Copper,L3,Inr*%
%TF.FilePolarity,Positive*%
%FSLAX46Y46*%
G04 Gerber Fmt 4.6, Leading zero omitted, Abs format (unit mm)*
G04 Created by KiCad (PCBNEW (6.0.0)) date 2022-11-12 11:45:22*
%MOMM*%
%LPD*%
G01*
G04 APERTURE LIST*
%TA.AperFunction,ComponentPad*%
%ADD10R,0.850000X0.850000*%
%TD*%
%TA.AperFunction,ComponentPad*%
%ADD11O,0.850000X0.850000*%
%TD*%
%TA.AperFunction,ComponentPad*%
%ADD12R,2.600000X2.600000*%
%TD*%
%TA.AperFunction,ComponentPad*%
%ADD13C,2.600000*%
%TD*%
%TA.AperFunction,ViaPad*%
%ADD14C,0.700000*%
%TD*%
%TA.AperFunction,ViaPad*%
%ADD15C,0.800000*%
%TD*%
G04 APERTURE END LIST*
D10*
%TO.N,+3V3*%
%TO.C,USART*%
X162962500Y-116105000D03*
D11*
%TO.N,USART_TX*%
X163962500Y-116105000D03*
%TO.N,USART_RX*%
X164962500Y-116105000D03*
%TO.N,GND*%
X165962500Y-116105000D03*
%TD*%
D10*
%TO.N,+3V3*%
%TO.C,SWD*%
X158862500Y-86205000D03*
D11*
%TO.N,Net-(J3-Pad2)*%
X157862500Y-86205000D03*
%TO.N,GND*%
X156862500Y-86205000D03*
%TO.N,SWCLK*%
X155862500Y-86205000D03*
%TO.N,GND*%
X154862500Y-86205000D03*
%TO.N,SWO*%
X153862500Y-86205000D03*
%TO.N,unconnected-(J3-Pad7)*%
X152862500Y-86205000D03*
%TO.N,unconnected-(J3-Pad8)*%
X151862500Y-86205000D03*
%TO.N,GND*%
X150862500Y-86205000D03*
%TO.N,Net-(J3-Pad10)*%
X149862500Y-86205000D03*
%TD*%
D12*
%TO.N,+12V*%
%TO.C,J1*%
X175407500Y-108855000D03*
D13*
%TO.N,GND*%
X175407500Y-105355000D03*
%TD*%
D10*
%TO.N,+3V3*%
%TO.C,SPI*%
X148062500Y-116005000D03*
D11*
%TO.N,SPI_SCK*%
X149062500Y-116005000D03*
%TO.N,SPI_MISO*%
X150062500Y-116005000D03*
%TO.N,SPI_MOSI*%
X151062500Y-116005000D03*
%TO.N,CS1*%
X152062500Y-116005000D03*
%TO.N,CS2*%
X153062500Y-116005000D03*
%TO.N,CS3*%
X154062500Y-116005000D03*
%TO.N,CS4*%
X155062500Y-116005000D03*
%TO.N,GND*%
X156062500Y-116005000D03*
%TD*%
D14*
%TO.N,+3V3*%
X149492500Y-111515000D03*
X159672500Y-96355000D03*
X150252500Y-108675000D03*
X144572500Y-111565000D03*
X155192500Y-111555000D03*
X153362500Y-110485000D03*
X148572500Y-94865000D03*
X149772500Y-97315000D03*
X148412500Y-107435000D03*
X134532500Y-98715000D03*
X158362500Y-106045000D03*
X159922500Y-90875000D03*
X150432500Y-104405000D03*
X146462500Y-111605000D03*
X158832500Y-94965000D03*
%TO.N,GND*%
X142762500Y-100255000D03*
X169242500Y-110345000D03*
X162812500Y-101255000D03*
X147032500Y-94855000D03*
D15*
X164252500Y-108925000D03*
D14*
X141182500Y-96795000D03*
X168882500Y-99795000D03*
X146922500Y-106855000D03*
X149182500Y-104585000D03*
X170282500Y-92055000D03*
X150692500Y-92835000D03*
X165242500Y-97975000D03*
D15*
X164152500Y-105235000D03*
D14*
X148782500Y-102105000D03*
X161472500Y-93615000D03*
X157882500Y-93645000D03*
X158042500Y-90865000D03*
X148362500Y-109235000D03*
X165032500Y-94645000D03*
D15*
%TO.N,+5V*%
X161838000Y-105105000D03*
X165662500Y-104205000D03*
X173662500Y-100005000D03*
%TO.N,+12V*%
X172162500Y-109505000D03*
X166413000Y-109875023D03*
%TO.N,USB_CONN_D+*%
X172432500Y-94515000D03*
X166122500Y-108455000D03*
%TO.N,USB_CONN_D-*%
X172435270Y-95976232D03*
X165472829Y-107476232D03*
%TO.N,Net-(J3-Pad10)*%
X145062500Y-99154500D03*
X145062500Y-90205000D03*
%TO.N,SPI_SCK*%
X149762500Y-107695500D03*
X146262500Y-110505000D03*
%TO.N,SPI_MISO*%
X147851461Y-110367987D03*
X151642500Y-104605000D03*
%TO.N,USART_TX*%
X154162500Y-103905000D03*
X157362500Y-111205000D03*
%TO.N,USART_RX*%
X164062500Y-113205000D03*
X155962500Y-103205000D03*
%TO.N,Net-(R1-Pad1)*%
X151462500Y-91605000D03*
X148762500Y-91205000D03*
%TO.N,USB_D-*%
X159222500Y-105125000D03*
X154539124Y-98924989D03*
%TO.N,USB_D+*%
X160533732Y-102605385D03*
X154539124Y-97874989D03*
%TD*%
%TA.AperFunction,Conductor*%
%TO.N,+3V3*%
G36*
X149194633Y-85333002D02*
G01*
X149241126Y-85386658D01*
X149251230Y-85456932D01*
X149220148Y-85523310D01*
X149103123Y-85653280D01*
X149005008Y-85823220D01*
X149002966Y-85829505D01*
X148965396Y-85945135D01*
X148944370Y-86009845D01*
X148923858Y-86205000D01*
X148944370Y-86400155D01*
X148946410Y-86406433D01*
X148946410Y-86406434D01*
X148966504Y-86468278D01*
X149005008Y-86586780D01*
X149103123Y-86756720D01*
X149234426Y-86902547D01*
X149239768Y-86906428D01*
X149239770Y-86906430D01*
X149348909Y-86985724D01*
X149393179Y-87017888D01*
X149399207Y-87020572D01*
X149399209Y-87020573D01*
X149566413Y-87095017D01*
X149572444Y-87097702D01*
X149668415Y-87118101D01*
X149757928Y-87137128D01*
X149757932Y-87137128D01*
X149764385Y-87138500D01*
X149960615Y-87138500D01*
X149967068Y-87137128D01*
X149967072Y-87137128D01*
X150056585Y-87118101D01*
X150152556Y-87097702D01*
X150160730Y-87094063D01*
X150208586Y-87072756D01*
X150311252Y-87027046D01*
X150381618Y-87017612D01*
X150413747Y-87027045D01*
X150516414Y-87072756D01*
X150564271Y-87094063D01*
X150572444Y-87097702D01*
X150668415Y-87118101D01*
X150757928Y-87137128D01*
X150757932Y-87137128D01*
X150764385Y-87138500D01*
X150960615Y-87138500D01*
X150967068Y-87137128D01*
X150967072Y-87137128D01*
X151056585Y-87118101D01*
X151152556Y-87097702D01*
X151160730Y-87094063D01*
X151208586Y-87072756D01*
X151311252Y-87027046D01*
X151381618Y-87017612D01*
X151413747Y-87027045D01*
X151516414Y-87072756D01*
X151564271Y-87094063D01*
X151572444Y-87097702D01*
X151668415Y-87118101D01*
X151757928Y-87137128D01*
X151757932Y-87137128D01*
X151764385Y-87138500D01*
X151960615Y-87138500D01*
X151967068Y-87137128D01*
X151967072Y-87137128D01*
X152056585Y-87118101D01*
X152152556Y-87097702D01*
X152160730Y-87094063D01*
X152208586Y-87072756D01*
X152311252Y-87027046D01*
X152381618Y-87017612D01*
X152413747Y-87027045D01*
X152516414Y-87072756D01*
X152564271Y-87094063D01*
X152572444Y-87097702D01*
X152668415Y-87118101D01*
X152757928Y-87137128D01*
X152757932Y-87137128D01*
X152764385Y-87138500D01*
X152960615Y-87138500D01*
X152967068Y-87137128D01*
X152967072Y-87137128D01*
X153056585Y-87118101D01*
X153152556Y-87097702D01*
X153160730Y-87094063D01*
X153208586Y-87072756D01*
X153311252Y-87027046D01*
X153381618Y-87017612D01*
X153413747Y-87027045D01*
X153516414Y-87072756D01*
X153564271Y-87094063D01*
X153572444Y-87097702D01*
X153668415Y-87118101D01*
X153757928Y-87137128D01*
X153757932Y-87137128D01*
X153764385Y-87138500D01*
X153960615Y-87138500D01*
X153967068Y-87137128D01*
X153967072Y-87137128D01*
X154056585Y-87118101D01*
X154152556Y-87097702D01*
X154160730Y-87094063D01*
X154208586Y-87072756D01*
X154311252Y-87027046D01*
X154381618Y-87017612D01*
X154413747Y-87027045D01*
X154516414Y-87072756D01*
X154564271Y-87094063D01*
X154572444Y-87097702D01*
X154668415Y-87118101D01*
X154757928Y-87137128D01*
X154757932Y-87137128D01*
X154764385Y-87138500D01*
X154960615Y-87138500D01*
X154967068Y-87137128D01*
X154967072Y-87137128D01*
X155056585Y-87118101D01*
X155152556Y-87097702D01*
X155160730Y-87094063D01*
X155208586Y-87072756D01*
X155311252Y-87027046D01*
X155381618Y-87017612D01*
X155413747Y-87027045D01*
X155516414Y-87072756D01*
X155564271Y-87094063D01*
X155572444Y-87097702D01*
X155668415Y-87118101D01*
X155757928Y-87137128D01*
X155757932Y-87137128D01*
X155764385Y-87138500D01*
X155960615Y-87138500D01*
X155967068Y-87137128D01*
X155967072Y-87137128D01*
X156056585Y-87118101D01*
X156152556Y-87097702D01*
X156160730Y-87094063D01*
X156208586Y-87072756D01*
X156311252Y-87027046D01*
X156381618Y-87017612D01*
X156413747Y-87027045D01*
X156516414Y-87072756D01*
X156564271Y-87094063D01*
X156572444Y-87097702D01*
X156668415Y-87118101D01*
X156757928Y-87137128D01*
X156757932Y-87137128D01*
X156764385Y-87138500D01*
X156960615Y-87138500D01*
X156967068Y-87137128D01*
X156967072Y-87137128D01*
X157056585Y-87118101D01*
X157152556Y-87097702D01*
X157160730Y-87094063D01*
X157208586Y-87072756D01*
X157311252Y-87027046D01*
X157381618Y-87017612D01*
X157413747Y-87027045D01*
X157516414Y-87072756D01*
X157564271Y-87094063D01*
X157572444Y-87097702D01*
X157668415Y-87118101D01*
X157757928Y-87137128D01*
X157757932Y-87137128D01*
X157764385Y-87138500D01*
X157960615Y-87138500D01*
X157967068Y-87137128D01*
X157967072Y-87137128D01*
X158146103Y-87099074D01*
X158146106Y-87099073D01*
X158152556Y-87097702D01*
X158156229Y-87096067D01*
X158226239Y-87094063D01*
X158238443Y-87097943D01*
X158319895Y-87128478D01*
X158335149Y-87132105D01*
X158386014Y-87137631D01*
X158392828Y-87138000D01*
X158590385Y-87138000D01*
X158605624Y-87133525D01*
X158606829Y-87132135D01*
X158608500Y-87124452D01*
X158608500Y-87119884D01*
X159116500Y-87119884D01*
X159120975Y-87135123D01*
X159122365Y-87136328D01*
X159130048Y-87137999D01*
X159332169Y-87137999D01*
X159338990Y-87137629D01*
X159389852Y-87132105D01*
X159405104Y-87128479D01*
X159525554Y-87083324D01*
X159541149Y-87074786D01*
X159643224Y-86998285D01*
X159655785Y-86985724D01*
X159732286Y-86883649D01*
X159740824Y-86868054D01*
X159785978Y-86747606D01*
X159789605Y-86732351D01*
X159795131Y-86681486D01*
X159795500Y-86674672D01*
X159795500Y-86477115D01*
X159791025Y-86461876D01*
X159789635Y-86460671D01*
X159781952Y-86459000D01*
X159134615Y-86459000D01*
X159119376Y-86463475D01*
X159118171Y-86464865D01*
X159116500Y-86472548D01*
X159116500Y-87119884D01*
X158608500Y-87119884D01*
X158608500Y-86813651D01*
X158625381Y-86750651D01*
X158716688Y-86592503D01*
X158716689Y-86592502D01*
X158719992Y-86586780D01*
X158758496Y-86468278D01*
X158778590Y-86406434D01*
X158778590Y-86406433D01*
X158780630Y-86400155D01*
X158801142Y-86205000D01*
X158789073Y-86090171D01*
X158801845Y-86020332D01*
X158850347Y-85968485D01*
X158914383Y-85951000D01*
X159777384Y-85951000D01*
X159792623Y-85946525D01*
X159793828Y-85945135D01*
X159795499Y-85937452D01*
X159795499Y-85735331D01*
X159795129Y-85728510D01*
X159789605Y-85677648D01*
X159785979Y-85662396D01*
X159740824Y-85541946D01*
X159732284Y-85526348D01*
X159723452Y-85514563D01*
X159698605Y-85448057D01*
X159713659Y-85378674D01*
X159763834Y-85328445D01*
X159824279Y-85313000D01*
X176513172Y-85313000D01*
X176532557Y-85314500D01*
X176547358Y-85316805D01*
X176547361Y-85316805D01*
X176556230Y-85318186D01*
X176572498Y-85316059D01*
X176597068Y-85315266D01*
X176801211Y-85328646D01*
X176817552Y-85330797D01*
X177044089Y-85375859D01*
X177060008Y-85380125D01*
X177278715Y-85454365D01*
X177293942Y-85460672D01*
X177501092Y-85562827D01*
X177515366Y-85571068D01*
X177707411Y-85699389D01*
X177720486Y-85709422D01*
X177894144Y-85861715D01*
X177905785Y-85873356D01*
X178025482Y-86009845D01*
X178058078Y-86047014D01*
X178068111Y-86060089D01*
X178196432Y-86252134D01*
X178204673Y-86266408D01*
X178306828Y-86473558D01*
X178313135Y-86488785D01*
X178387375Y-86707492D01*
X178391641Y-86723411D01*
X178436703Y-86949948D01*
X178438854Y-86966290D01*
X178451764Y-87163269D01*
X178450739Y-87186304D01*
X178450696Y-87189854D01*
X178449314Y-87198730D01*
X178450779Y-87209930D01*
X178453436Y-87230251D01*
X178454500Y-87246589D01*
X178454500Y-115155672D01*
X178453000Y-115175057D01*
X178450763Y-115189427D01*
X178449314Y-115198730D01*
X178451441Y-115214998D01*
X178452234Y-115239568D01*
X178438854Y-115443711D01*
X178436703Y-115460052D01*
X178391641Y-115686589D01*
X178387375Y-115702508D01*
X178313135Y-115921215D01*
X178306828Y-115936442D01*
X178204673Y-116143592D01*
X178196432Y-116157866D01*
X178068111Y-116349911D01*
X178058078Y-116362986D01*
X177905785Y-116536644D01*
X177894144Y-116548285D01*
X177784419Y-116644511D01*
X177720486Y-116700578D01*
X177707411Y-116710611D01*
X177515366Y-116838932D01*
X177501092Y-116847173D01*
X177293942Y-116949328D01*
X177278715Y-116955635D01*
X177060008Y-117029875D01*
X177044089Y-117034141D01*
X176817552Y-117079203D01*
X176801210Y-117081354D01*
X176604231Y-117094264D01*
X176581196Y-117093239D01*
X176577646Y-117093196D01*
X176568770Y-117091814D01*
X176540262Y-117095542D01*
X176537249Y-117095936D01*
X176520911Y-117097000D01*
X166573082Y-117097000D01*
X166504961Y-117076998D01*
X166458468Y-117023342D01*
X166448364Y-116953068D01*
X166477858Y-116888488D01*
X166499021Y-116869064D01*
X166517150Y-116855893D01*
X166556854Y-116827046D01*
X166585230Y-116806430D01*
X166585232Y-116806428D01*
X166590574Y-116802547D01*
X166596831Y-116795598D01*
X166717458Y-116661628D01*
X166717459Y-116661627D01*
X166721877Y-116656720D01*
X166806397Y-116510328D01*
X166816688Y-116492503D01*
X166816689Y-116492502D01*
X166819992Y-116486780D01*
X166857108Y-116372548D01*
X166878590Y-116306434D01*
X166878590Y-116306433D01*
X166880630Y-116300155D01*
X166901142Y-116105000D01*
X166889941Y-115998435D01*
X166881320Y-115916409D01*
X166881320Y-115916408D01*
X166880630Y-115909845D01*
X166859605Y-115845135D01*
X166822034Y-115729505D01*
X166819992Y-115723220D01*
X166811300Y-115708164D01*
X166769247Y-115635328D01*
X166721877Y-115553280D01*
X166701912Y-115531106D01*
X166594996Y-115412364D01*
X166594995Y-115412363D01*
X166590574Y-115407453D01*
X166459696Y-115312364D01*
X166437163Y-115295993D01*
X166437162Y-115295992D01*
X166431821Y-115292112D01*
X166425793Y-115289428D01*
X166425791Y-115289427D01*
X166258587Y-115214983D01*
X166258586Y-115214983D01*
X166252556Y-115212298D01*
X166218221Y-115205000D01*
X174949026Y-115205000D01*
X174968891Y-115457403D01*
X174970045Y-115462210D01*
X174970046Y-115462216D01*
X174993366Y-115559349D01*
X175027995Y-115703591D01*
X175029888Y-115708162D01*
X175029889Y-115708164D01*
X175121378Y-115929037D01*
X175124884Y-115937502D01*
X175257172Y-116153376D01*
X175382534Y-116300155D01*
X175417859Y-116341515D01*
X175421602Y-116345898D01*
X175614124Y-116510328D01*
X175829998Y-116642616D01*
X175834568Y-116644509D01*
X175834572Y-116644511D01*
X176059336Y-116737611D01*
X176063909Y-116739505D01*
X176126731Y-116754587D01*
X176305284Y-116797454D01*
X176305290Y-116797455D01*
X176310097Y-116798609D01*
X176409470Y-116806430D01*
X176496845Y-116813307D01*
X176496852Y-116813307D01*
X176499301Y-116813500D01*
X176625699Y-116813500D01*
X176628148Y-116813307D01*
X176628155Y-116813307D01*
X176715530Y-116806430D01*
X176814903Y-116798609D01*
X176819710Y-116797455D01*
X176819716Y-116797454D01*
X176998269Y-116754587D01*
X177061091Y-116739505D01*
X177065664Y-116737611D01*
X177290428Y-116644511D01*
X177290432Y-116644509D01*
X177295002Y-116642616D01*
X177510876Y-116510328D01*
X177703398Y-116345898D01*
X177707142Y-116341515D01*
X177742466Y-116300155D01*
X177867828Y-116153376D01*
X178000116Y-115937502D01*
X178003623Y-115929037D01*
X178095111Y-115708164D01*
X178095112Y-115708162D01*
X178097005Y-115703591D01*
X178131634Y-115559349D01*
X178154954Y-115462216D01*
X178154955Y-115462210D01*
X178156109Y-115457403D01*
X178175974Y-115205000D01*
X178156109Y-114952597D01*
X178097005Y-114706409D01*
X178000116Y-114472498D01*
X177867828Y-114256624D01*
X177703398Y-114064102D01*
X177510876Y-113899672D01*
X177295002Y-113767384D01*
X177290432Y-113765491D01*
X177290428Y-113765489D01*
X177065664Y-113672389D01*
X177065662Y-113672388D01*
X177061091Y-113670495D01*
X176976468Y-113650179D01*
X176819716Y-113612546D01*
X176819710Y-113612545D01*
X176814903Y-113611391D01*
X176715084Y-113603535D01*
X176628155Y-113596693D01*
X176628148Y-113596693D01*
X176625699Y-113596500D01*
X176499301Y-113596500D01*
X176496852Y-113596693D01*
X176496845Y-113596693D01*
X176409916Y-113603535D01*
X176310097Y-113611391D01*
X176305290Y-113612545D01*
X176305284Y-113612546D01*
X176148532Y-113650179D01*
X176063909Y-113670495D01*
X176059338Y-113672388D01*
X176059336Y-113672389D01*
X175834572Y-113765489D01*
X175834568Y-113765491D01*
X175829998Y-113767384D01*
X175614124Y-113899672D01*
X175421602Y-114064102D01*
X175257172Y-114256624D01*
X175124884Y-114472498D01*
X175027995Y-114706409D01*
X174968891Y-114952597D01*
X174949026Y-115205000D01*
X166218221Y-115205000D01*
X166148197Y-115190116D01*
X166067072Y-115172872D01*
X166067068Y-115172872D01*
X166060615Y-115171500D01*
X165864385Y-115171500D01*
X165857932Y-115172872D01*
X165857928Y-115172872D01*
X165776803Y-115190116D01*
X165672444Y-115212298D01*
X165666414Y-115214983D01*
X165666413Y-115214983D01*
X165636761Y-115228185D01*
X165513748Y-115282954D01*
X165443382Y-115292388D01*
X165411253Y-115282955D01*
X165288239Y-115228185D01*
X165258587Y-115214983D01*
X165258586Y-115214983D01*
X165252556Y-115212298D01*
X165148197Y-115190116D01*
X165067072Y-115172872D01*
X165067068Y-115172872D01*
X165060615Y-115171500D01*
X164864385Y-115171500D01*
X164857932Y-115172872D01*
X164857928Y-115172872D01*
X164776803Y-115190116D01*
X164672444Y-115212298D01*
X164666414Y-115214983D01*
X164666413Y-115214983D01*
X164636761Y-115228185D01*
X164513748Y-115282954D01*
X164443382Y-115292388D01*
X164411253Y-115282955D01*
X164288239Y-115228185D01*
X164258587Y-115214983D01*
X164258586Y-115214983D01*
X164252556Y-115212298D01*
X164148197Y-115190116D01*
X164067072Y-115172872D01*
X164067068Y-115172872D01*
X164060615Y-115171500D01*
X163864385Y-115171500D01*
X163857932Y-115172872D01*
X163857928Y-115172872D01*
X163678897Y-115210926D01*
X163678894Y-115210927D01*
X163672444Y-115212298D01*
X163668771Y-115213933D01*
X163598761Y-115215937D01*
X163586557Y-115212057D01*
X163505105Y-115181522D01*
X163489851Y-115177895D01*
X163438986Y-115172369D01*
X163432172Y-115172000D01*
X163234615Y-115172000D01*
X163219376Y-115176475D01*
X163218171Y-115177865D01*
X163216500Y-115185548D01*
X163216500Y-115496349D01*
X163199619Y-115559349D01*
X163113701Y-115708164D01*
X163105008Y-115723220D01*
X163102966Y-115729505D01*
X163065396Y-115845135D01*
X163044370Y-115909845D01*
X163043680Y-115916408D01*
X163043680Y-115916409D01*
X163035059Y-115998435D01*
X163023858Y-116105000D01*
X163024548Y-116111565D01*
X163035927Y-116219829D01*
X163023155Y-116289668D01*
X162974653Y-116341515D01*
X162910617Y-116359000D01*
X162047616Y-116359000D01*
X162032377Y-116363475D01*
X162031172Y-116364865D01*
X162029501Y-116372548D01*
X162029501Y-116574669D01*
X162029871Y-116581490D01*
X162035395Y-116632352D01*
X162039021Y-116647604D01*
X162084176Y-116768054D01*
X162092714Y-116783649D01*
X162174596Y-116892904D01*
X162172330Y-116894603D01*
X162199422Y-116944217D01*
X162194357Y-117015032D01*
X162151810Y-117071868D01*
X162085290Y-117096679D01*
X162076301Y-117097000D01*
X156497709Y-117097000D01*
X156429588Y-117076998D01*
X156383095Y-117023342D01*
X156372991Y-116953068D01*
X156402485Y-116888488D01*
X156446460Y-116855893D01*
X156525791Y-116820573D01*
X156525793Y-116820572D01*
X156531821Y-116817888D01*
X156557822Y-116798997D01*
X156685230Y-116706430D01*
X156685232Y-116706428D01*
X156690574Y-116702547D01*
X156744536Y-116642616D01*
X156817458Y-116561628D01*
X156817459Y-116561627D01*
X156821877Y-116556720D01*
X156919992Y-116386780D01*
X156957108Y-116272548D01*
X156978590Y-116206434D01*
X156978590Y-116206433D01*
X156980630Y-116200155D01*
X156984119Y-116166965D01*
X157000452Y-116011565D01*
X157001142Y-116005000D01*
X156983052Y-115832885D01*
X162029500Y-115832885D01*
X162033975Y-115848124D01*
X162035365Y-115849329D01*
X162043048Y-115851000D01*
X162690385Y-115851000D01*
X162705624Y-115846525D01*
X162706829Y-115845135D01*
X162708500Y-115837452D01*
X162708500Y-115190116D01*
X162704025Y-115174877D01*
X162702635Y-115173672D01*
X162694952Y-115172001D01*
X162492831Y-115172001D01*
X162486010Y-115172371D01*
X162435148Y-115177895D01*
X162419896Y-115181521D01*
X162299446Y-115226676D01*
X162283851Y-115235214D01*
X162181776Y-115311715D01*
X162169215Y-115324276D01*
X162092714Y-115426351D01*
X162084176Y-115441946D01*
X162039022Y-115562394D01*
X162035395Y-115577649D01*
X162029869Y-115628514D01*
X162029500Y-115635328D01*
X162029500Y-115832885D01*
X156983052Y-115832885D01*
X156980630Y-115809845D01*
X156959605Y-115745135D01*
X156922034Y-115629505D01*
X156919992Y-115623220D01*
X156821877Y-115453280D01*
X156705722Y-115324276D01*
X156694996Y-115312364D01*
X156694995Y-115312363D01*
X156690574Y-115307453D01*
X156665764Y-115289427D01*
X156537163Y-115195993D01*
X156537162Y-115195992D01*
X156531821Y-115192112D01*
X156525793Y-115189428D01*
X156525791Y-115189427D01*
X156358587Y-115114983D01*
X156358586Y-115114983D01*
X156352556Y-115112298D01*
X156248197Y-115090116D01*
X156167072Y-115072872D01*
X156167068Y-115072872D01*
X156160615Y-115071500D01*
X155964385Y-115071500D01*
X155957932Y-115072872D01*
X155957928Y-115072872D01*
X155876803Y-115090116D01*
X155772444Y-115112298D01*
X155766414Y-115114983D01*
X155766413Y-115114983D01*
X155720974Y-115135214D01*
X155613748Y-115182954D01*
X155543382Y-115192388D01*
X155511253Y-115182955D01*
X155404026Y-115135214D01*
X155358587Y-115114983D01*
X155358586Y-115114983D01*
X155352556Y-115112298D01*
X155248197Y-115090116D01*
X155167072Y-115072872D01*
X155167068Y-115072872D01*
X155160615Y-115071500D01*
X154964385Y-115071500D01*
X154957932Y-115072872D01*
X154957928Y-115072872D01*
X154876803Y-115090116D01*
X154772444Y-115112298D01*
X154766414Y-115114983D01*
X154766413Y-115114983D01*
X154720974Y-115135214D01*
X154613748Y-115182954D01*
X154543382Y-115192388D01*
X154511253Y-115182955D01*
X154404026Y-115135214D01*
X154358587Y-115114983D01*
X154358586Y-115114983D01*
X154352556Y-115112298D01*
X154248197Y-115090116D01*
X154167072Y-115072872D01*
X154167068Y-115072872D01*
X154160615Y-115071500D01*
X153964385Y-115071500D01*
X153957932Y-115072872D01*
X153957928Y-115072872D01*
X153876803Y-115090116D01*
X153772444Y-115112298D01*
X153766414Y-115114983D01*
X153766413Y-115114983D01*
X153720974Y-115135214D01*
X153613748Y-115182954D01*
X153543382Y-115192388D01*
X153511253Y-115182955D01*
X153404026Y-115135214D01*
X153358587Y-115114983D01*
X153358586Y-115114983D01*
X153352556Y-115112298D01*
X153248197Y-115090116D01*
X153167072Y-115072872D01*
X153167068Y-115072872D01*
X153160615Y-115071500D01*
X152964385Y-115071500D01*
X152957932Y-115072872D01*
X152957928Y-115072872D01*
X152876803Y-115090116D01*
X152772444Y-115112298D01*
X152766414Y-115114983D01*
X152766413Y-115114983D01*
X152720974Y-115135214D01*
X152613748Y-115182954D01*
X152543382Y-115192388D01*
X152511253Y-115182955D01*
X152404026Y-115135214D01*
X152358587Y-115114983D01*
X152358586Y-115114983D01*
X152352556Y-115112298D01*
X152248197Y-115090116D01*
X152167072Y-115072872D01*
X152167068Y-115072872D01*
X152160615Y-115071500D01*
X151964385Y-115071500D01*
X151957932Y-115072872D01*
X151957928Y-115072872D01*
X151876803Y-115090116D01*
X151772444Y-115112298D01*
X151766414Y-115114983D01*
X151766413Y-115114983D01*
X151720974Y-115135214D01*
X151613748Y-115182954D01*
X151543382Y-115192388D01*
X151511253Y-115182955D01*
X151404026Y-115135214D01*
X151358587Y-115114983D01*
X151358586Y-115114983D01*
X151352556Y-115112298D01*
X151248197Y-115090116D01*
X151167072Y-115072872D01*
X151167068Y-115072872D01*
X151160615Y-115071500D01*
X150964385Y-115071500D01*
X150957932Y-115072872D01*
X150957928Y-115072872D01*
X150876803Y-115090116D01*
X150772444Y-115112298D01*
X150766414Y-115114983D01*
X150766413Y-115114983D01*
X150720974Y-115135214D01*
X150613748Y-115182954D01*
X150543382Y-115192388D01*
X150511253Y-115182955D01*
X150404026Y-115135214D01*
X150358587Y-115114983D01*
X150358586Y-115114983D01*
X150352556Y-115112298D01*
X150248197Y-115090116D01*
X150167072Y-115072872D01*
X150167068Y-115072872D01*
X150160615Y-115071500D01*
X149964385Y-115071500D01*
X149957932Y-115072872D01*
X149957928Y-115072872D01*
X149876803Y-115090116D01*
X149772444Y-115112298D01*
X149766414Y-115114983D01*
X149766413Y-115114983D01*
X149720974Y-115135214D01*
X149613748Y-115182954D01*
X149543382Y-115192388D01*
X149511253Y-115182955D01*
X149404026Y-115135214D01*
X149358587Y-115114983D01*
X149358586Y-115114983D01*
X149352556Y-115112298D01*
X149248197Y-115090116D01*
X149167072Y-115072872D01*
X149167068Y-115072872D01*
X149160615Y-115071500D01*
X148964385Y-115071500D01*
X148957932Y-115072872D01*
X148957928Y-115072872D01*
X148778897Y-115110926D01*
X148778894Y-115110927D01*
X148772444Y-115112298D01*
X148768771Y-115113933D01*
X148698761Y-115115937D01*
X148686557Y-115112057D01*
X148605105Y-115081522D01*
X148589851Y-115077895D01*
X148538986Y-115072369D01*
X148532172Y-115072000D01*
X148334615Y-115072000D01*
X148319376Y-115076475D01*
X148318171Y-115077865D01*
X148316500Y-115085548D01*
X148316500Y-115396349D01*
X148299619Y-115459349D01*
X148242087Y-115558998D01*
X148205008Y-115623220D01*
X148202966Y-115629505D01*
X148165396Y-115745135D01*
X148144370Y-115809845D01*
X148123858Y-116005000D01*
X148124548Y-116011565D01*
X148135927Y-116119829D01*
X148123155Y-116189668D01*
X148074653Y-116241515D01*
X148010617Y-116259000D01*
X147147616Y-116259000D01*
X147132377Y-116263475D01*
X147131172Y-116264865D01*
X147129501Y-116272548D01*
X147129501Y-116474669D01*
X147129871Y-116481490D01*
X147135395Y-116532352D01*
X147139021Y-116547604D01*
X147184176Y-116668054D01*
X147192714Y-116683649D01*
X147269215Y-116785724D01*
X147281772Y-116798281D01*
X147377698Y-116870173D01*
X147420213Y-116927033D01*
X147425239Y-116997851D01*
X147391179Y-117060145D01*
X147328848Y-117094135D01*
X147302133Y-117097000D01*
X132711828Y-117097000D01*
X132692443Y-117095500D01*
X132677642Y-117093195D01*
X132677639Y-117093195D01*
X132668770Y-117091814D01*
X132652502Y-117093941D01*
X132627932Y-117094734D01*
X132423789Y-117081354D01*
X132407448Y-117079203D01*
X132180911Y-117034141D01*
X132164992Y-117029875D01*
X131946285Y-116955635D01*
X131931058Y-116949328D01*
X131723908Y-116847173D01*
X131709634Y-116838932D01*
X131517589Y-116710611D01*
X131504514Y-116700578D01*
X131440581Y-116644511D01*
X131330856Y-116548285D01*
X131319215Y-116536644D01*
X131166922Y-116362986D01*
X131156889Y-116349911D01*
X131028568Y-116157866D01*
X131020327Y-116143592D01*
X130918172Y-115936442D01*
X130911865Y-115921215D01*
X130837625Y-115702508D01*
X130833359Y-115686589D01*
X130788297Y-115460052D01*
X130786146Y-115443710D01*
X130773236Y-115246731D01*
X130774261Y-115223696D01*
X130774304Y-115220146D01*
X130775686Y-115211270D01*
X130774866Y-115205000D01*
X131049026Y-115205000D01*
X131068891Y-115457403D01*
X131070045Y-115462210D01*
X131070046Y-115462216D01*
X131093366Y-115559349D01*
X131127995Y-115703591D01*
X131129888Y-115708162D01*
X131129889Y-115708164D01*
X131221378Y-115929037D01*
X131224884Y-115937502D01*
X131357172Y-116153376D01*
X131482534Y-116300155D01*
X131517859Y-116341515D01*
X131521602Y-116345898D01*
X131714124Y-116510328D01*
X131929998Y-116642616D01*
X131934568Y-116644509D01*
X131934572Y-116644511D01*
X132159336Y-116737611D01*
X132163909Y-116739505D01*
X132226731Y-116754587D01*
X132405284Y-116797454D01*
X132405290Y-116797455D01*
X132410097Y-116798609D01*
X132509470Y-116806430D01*
X132596845Y-116813307D01*
X132596852Y-116813307D01*
X132599301Y-116813500D01*
X132725699Y-116813500D01*
X132728148Y-116813307D01*
X132728155Y-116813307D01*
X132815530Y-116806430D01*
X132914903Y-116798609D01*
X132919710Y-116797455D01*
X132919716Y-116797454D01*
X133098269Y-116754587D01*
X133161091Y-116739505D01*
X133165664Y-116737611D01*
X133390428Y-116644511D01*
X133390432Y-116644509D01*
X133395002Y-116642616D01*
X133610876Y-116510328D01*
X133803398Y-116345898D01*
X133807142Y-116341515D01*
X133842466Y-116300155D01*
X133967828Y-116153376D01*
X134100116Y-115937502D01*
X134103623Y-115929037D01*
X134184871Y-115732885D01*
X147129500Y-115732885D01*
X147133975Y-115748124D01*
X147135365Y-115749329D01*
X147143048Y-115751000D01*
X147790385Y-115751000D01*
X147805624Y-115746525D01*
X147806829Y-115745135D01*
X147808500Y-115737452D01*
X147808500Y-115090116D01*
X147804025Y-115074877D01*
X147802635Y-115073672D01*
X147794952Y-115072001D01*
X147592831Y-115072001D01*
X147586010Y-115072371D01*
X147535148Y-115077895D01*
X147519896Y-115081521D01*
X147399446Y-115126676D01*
X147383851Y-115135214D01*
X147281776Y-115211715D01*
X147269215Y-115224276D01*
X147192714Y-115326351D01*
X147184176Y-115341946D01*
X147139022Y-115462394D01*
X147135395Y-115477649D01*
X147129869Y-115528514D01*
X147129500Y-115535328D01*
X147129500Y-115732885D01*
X134184871Y-115732885D01*
X134195111Y-115708164D01*
X134195112Y-115708162D01*
X134197005Y-115703591D01*
X134231634Y-115559349D01*
X134254954Y-115462216D01*
X134254955Y-115462210D01*
X134256109Y-115457403D01*
X134275974Y-115205000D01*
X134256109Y-114952597D01*
X134197005Y-114706409D01*
X134100116Y-114472498D01*
X133967828Y-114256624D01*
X133803398Y-114064102D01*
X133610876Y-113899672D01*
X133395002Y-113767384D01*
X133390432Y-113765491D01*
X133390428Y-113765489D01*
X133165664Y-113672389D01*
X133165662Y-113672388D01*
X133161091Y-113670495D01*
X133076468Y-113650179D01*
X132919716Y-113612546D01*
X132919710Y-113612545D01*
X132914903Y-113611391D01*
X132815084Y-113603535D01*
X132728155Y-113596693D01*
X132728148Y-113596693D01*
X132725699Y-113596500D01*
X132599301Y-113596500D01*
X132596852Y-113596693D01*
X132596845Y-113596693D01*
X132509916Y-113603535D01*
X132410097Y-113611391D01*
X132405290Y-113612545D01*
X132405284Y-113612546D01*
X132248532Y-113650179D01*
X132163909Y-113670495D01*
X132159338Y-113672388D01*
X132159336Y-113672389D01*
X131934572Y-113765489D01*
X131934568Y-113765491D01*
X131929998Y-113767384D01*
X131714124Y-113899672D01*
X131521602Y-114064102D01*
X131357172Y-114256624D01*
X131224884Y-114472498D01*
X131127995Y-114706409D01*
X131068891Y-114952597D01*
X131049026Y-115205000D01*
X130774866Y-115205000D01*
X130771564Y-115179748D01*
X130770500Y-115163411D01*
X130770500Y-113205000D01*
X163148996Y-113205000D01*
X163168958Y-113394928D01*
X163227973Y-113576556D01*
X163323460Y-113741944D01*
X163451247Y-113883866D01*
X163605748Y-113996118D01*
X163611776Y-113998802D01*
X163611778Y-113998803D01*
X163751238Y-114060894D01*
X163780212Y-114073794D01*
X163873613Y-114093647D01*
X163960556Y-114112128D01*
X163960561Y-114112128D01*
X163967013Y-114113500D01*
X164157987Y-114113500D01*
X164164439Y-114112128D01*
X164164444Y-114112128D01*
X164251387Y-114093647D01*
X164344788Y-114073794D01*
X164373762Y-114060894D01*
X164513222Y-113998803D01*
X164513224Y-113998802D01*
X164519252Y-113996118D01*
X164673753Y-113883866D01*
X164801540Y-113741944D01*
X164897027Y-113576556D01*
X164956042Y-113394928D01*
X164976004Y-113205000D01*
X164956042Y-113015072D01*
X164897027Y-112833444D01*
X164801540Y-112668056D01*
X164673753Y-112526134D01*
X164519252Y-112413882D01*
X164513224Y-112411198D01*
X164513222Y-112411197D01*
X164350819Y-112338891D01*
X164350818Y-112338891D01*
X164344788Y-112336206D01*
X164251387Y-112316353D01*
X164164444Y-112297872D01*
X164164439Y-112297872D01*
X164157987Y-112296500D01*
X163967013Y-112296500D01*
X163960561Y-112297872D01*
X163960556Y-112297872D01*
X163873612Y-112316353D01*
X163780212Y-112336206D01*
X163774182Y-112338891D01*
X163774181Y-112338891D01*
X163611778Y-112411197D01*
X163611776Y-112411198D01*
X163605748Y-112413882D01*
X163451247Y-112526134D01*
X163323460Y-112668056D01*
X163227973Y-112833444D01*
X163168958Y-113015072D01*
X163148996Y-113205000D01*
X130770500Y-113205000D01*
X130770500Y-110505000D01*
X145348996Y-110505000D01*
X145349686Y-110511565D01*
X145366735Y-110673774D01*
X145368958Y-110694928D01*
X145427973Y-110876556D01*
X145523460Y-111041944D01*
X145527878Y-111046851D01*
X145527879Y-111046852D01*
X145625458Y-111155224D01*
X145651247Y-111183866D01*
X145805748Y-111296118D01*
X145811776Y-111298802D01*
X145811778Y-111298803D01*
X145974181Y-111371109D01*
X145980212Y-111373794D01*
X146048763Y-111388365D01*
X146160556Y-111412128D01*
X146160561Y-111412128D01*
X146167013Y-111413500D01*
X146357987Y-111413500D01*
X146364439Y-111412128D01*
X146364444Y-111412128D01*
X146476237Y-111388365D01*
X146544788Y-111373794D01*
X146550819Y-111371109D01*
X146713222Y-111298803D01*
X146713224Y-111298802D01*
X146719252Y-111296118D01*
X146873753Y-111183866D01*
X146899542Y-111155224D01*
X146997121Y-111046852D01*
X146997122Y-111046851D01*
X147001540Y-111041944D01*
X147006350Y-111033613D01*
X147007618Y-111032404D01*
X147008724Y-111030882D01*
X147009002Y-111031084D01*
X147057735Y-110984622D01*
X147127449Y-110971188D01*
X147193359Y-110997577D01*
X147209096Y-111012299D01*
X147240208Y-111046853D01*
X147394709Y-111159105D01*
X147400737Y-111161789D01*
X147400739Y-111161790D01*
X147563142Y-111234096D01*
X147569173Y-111236781D01*
X147662574Y-111256634D01*
X147749517Y-111275115D01*
X147749522Y-111275115D01*
X147755974Y-111276487D01*
X147946948Y-111276487D01*
X147953400Y-111275115D01*
X147953405Y-111275115D01*
X148040349Y-111256634D01*
X148133749Y-111236781D01*
X148139780Y-111234096D01*
X148205131Y-111205000D01*
X156448996Y-111205000D01*
X156449686Y-111211565D01*
X156466455Y-111371109D01*
X156468958Y-111394928D01*
X156527973Y-111576556D01*
X156623460Y-111741944D01*
X156751247Y-111883866D01*
X156905748Y-111996118D01*
X156911776Y-111998802D01*
X156911778Y-111998803D01*
X157074181Y-112071109D01*
X157080212Y-112073794D01*
X157173612Y-112093647D01*
X157260556Y-112112128D01*
X157260561Y-112112128D01*
X157267013Y-112113500D01*
X157457987Y-112113500D01*
X157464439Y-112112128D01*
X157464444Y-112112128D01*
X157551388Y-112093647D01*
X157644788Y-112073794D01*
X157650819Y-112071109D01*
X157813222Y-111998803D01*
X157813224Y-111998802D01*
X157819252Y-111996118D01*
X157973753Y-111883866D01*
X158101540Y-111741944D01*
X158197027Y-111576556D01*
X158256042Y-111394928D01*
X158258546Y-111371109D01*
X158275314Y-111211565D01*
X158276004Y-111205000D01*
X158271621Y-111163295D01*
X158256732Y-111021635D01*
X158256732Y-111021633D01*
X158256042Y-111015072D01*
X158197027Y-110833444D01*
X158101540Y-110668056D01*
X158040469Y-110600229D01*
X157978175Y-110531045D01*
X157978174Y-110531044D01*
X157973753Y-110526134D01*
X157819252Y-110413882D01*
X157813224Y-110411198D01*
X157813222Y-110411197D01*
X157650819Y-110338891D01*
X157650818Y-110338891D01*
X157644788Y-110336206D01*
X157545361Y-110315072D01*
X157464444Y-110297872D01*
X157464439Y-110297872D01*
X157457987Y-110296500D01*
X157267013Y-110296500D01*
X157260561Y-110297872D01*
X157260556Y-110297872D01*
X157179639Y-110315072D01*
X157080212Y-110336206D01*
X157074182Y-110338891D01*
X157074181Y-110338891D01*
X156911778Y-110411197D01*
X156911776Y-110411198D01*
X156905748Y-110413882D01*
X156751247Y-110526134D01*
X156746826Y-110531044D01*
X156746825Y-110531045D01*
X156684532Y-110600229D01*
X156623460Y-110668056D01*
X156527973Y-110833444D01*
X156468958Y-111015072D01*
X156468268Y-111021633D01*
X156468268Y-111021635D01*
X156453379Y-111163295D01*
X156448996Y-111205000D01*
X148205131Y-111205000D01*
X148302183Y-111161790D01*
X148302185Y-111161789D01*
X148308213Y-111159105D01*
X148462714Y-111046853D01*
X148474636Y-111033613D01*
X148586082Y-110909839D01*
X148586083Y-110909838D01*
X148590501Y-110904931D01*
X148685988Y-110739543D01*
X148745003Y-110557915D01*
X148745943Y-110548978D01*
X148764275Y-110374552D01*
X148764965Y-110367987D01*
X148760093Y-110321635D01*
X148745693Y-110184622D01*
X148745693Y-110184620D01*
X148745003Y-110178059D01*
X148730590Y-110133700D01*
X148728563Y-110062732D01*
X148765225Y-110001934D01*
X148787422Y-109985646D01*
X148788089Y-109985261D01*
X148794115Y-109982578D01*
X148820858Y-109963148D01*
X148934769Y-109880387D01*
X148934771Y-109880385D01*
X148940113Y-109876504D01*
X148954361Y-109860680D01*
X149056448Y-109747301D01*
X149056449Y-109747300D01*
X149060867Y-109742393D01*
X149143681Y-109598955D01*
X149147795Y-109591830D01*
X149147796Y-109591829D01*
X149151099Y-109586107D01*
X149191442Y-109461944D01*
X149204825Y-109420754D01*
X149204825Y-109420753D01*
X149206865Y-109414475D01*
X149210936Y-109375748D01*
X149225039Y-109241565D01*
X149225729Y-109235000D01*
X149206865Y-109055525D01*
X149164455Y-108925000D01*
X163338996Y-108925000D01*
X163339686Y-108931565D01*
X163352715Y-109055525D01*
X163358958Y-109114928D01*
X163417973Y-109296556D01*
X163421276Y-109302278D01*
X163421277Y-109302279D01*
X163428663Y-109315072D01*
X163513460Y-109461944D01*
X163517878Y-109466851D01*
X163517879Y-109466852D01*
X163550847Y-109503467D01*
X163641247Y-109603866D01*
X163683871Y-109634834D01*
X163766583Y-109694928D01*
X163795748Y-109716118D01*
X163801776Y-109718802D01*
X163801778Y-109718803D01*
X163964181Y-109791109D01*
X163970212Y-109793794D01*
X164063613Y-109813647D01*
X164150556Y-109832128D01*
X164150561Y-109832128D01*
X164157013Y-109833500D01*
X164347987Y-109833500D01*
X164354439Y-109832128D01*
X164354444Y-109832128D01*
X164441387Y-109813647D01*
X164534788Y-109793794D01*
X164540819Y-109791109D01*
X164703222Y-109718803D01*
X164703224Y-109718802D01*
X164709252Y-109716118D01*
X164738418Y-109694928D01*
X164821129Y-109634834D01*
X164863753Y-109603866D01*
X164954153Y-109503467D01*
X164987121Y-109466852D01*
X164987122Y-109466851D01*
X164991540Y-109461944D01*
X165076337Y-109315072D01*
X165083723Y-109302279D01*
X165083724Y-109302278D01*
X165087027Y-109296556D01*
X165146042Y-109114928D01*
X165152286Y-109055525D01*
X165153137Y-109047424D01*
X165180150Y-108981767D01*
X165238372Y-108941138D01*
X165309317Y-108938435D01*
X165370461Y-108974517D01*
X165380228Y-108986347D01*
X165383460Y-108991944D01*
X165387881Y-108996854D01*
X165498052Y-109119211D01*
X165511247Y-109133866D01*
X165516589Y-109137747D01*
X165516591Y-109137749D01*
X165574624Y-109179912D01*
X165591639Y-109192274D01*
X165617154Y-109210812D01*
X165660508Y-109267034D01*
X165666583Y-109337770D01*
X165652212Y-109375747D01*
X165578473Y-109503467D01*
X165519458Y-109685095D01*
X165518768Y-109691656D01*
X165518768Y-109691658D01*
X165503243Y-109839374D01*
X165499496Y-109875023D01*
X165500186Y-109881588D01*
X165511990Y-109993893D01*
X165519458Y-110064951D01*
X165578473Y-110246579D01*
X165673960Y-110411967D01*
X165678378Y-110416874D01*
X165678379Y-110416875D01*
X165776756Y-110526134D01*
X165801747Y-110553889D01*
X165877280Y-110608767D01*
X165944490Y-110657598D01*
X165956248Y-110666141D01*
X165962276Y-110668825D01*
X165962278Y-110668826D01*
X166036407Y-110701830D01*
X166130712Y-110743817D01*
X166224112Y-110763670D01*
X166311056Y-110782151D01*
X166311061Y-110782151D01*
X166317513Y-110783523D01*
X166508487Y-110783523D01*
X166514939Y-110782151D01*
X166514944Y-110782151D01*
X166601888Y-110763670D01*
X166695288Y-110743817D01*
X166789593Y-110701830D01*
X166863722Y-110668826D01*
X166863724Y-110668825D01*
X166869752Y-110666141D01*
X166881511Y-110657598D01*
X166948720Y-110608767D01*
X167024253Y-110553889D01*
X167049244Y-110526134D01*
X167147621Y-110416875D01*
X167147622Y-110416874D01*
X167152040Y-110411967D01*
X167190703Y-110345000D01*
X168379271Y-110345000D01*
X168379961Y-110351565D01*
X168386826Y-110416875D01*
X168398135Y-110524475D01*
X168453901Y-110696107D01*
X168544133Y-110852393D01*
X168548551Y-110857300D01*
X168548552Y-110857301D01*
X168651096Y-110971188D01*
X168664887Y-110986504D01*
X168670229Y-110990385D01*
X168670231Y-110990387D01*
X168805543Y-111088697D01*
X168810885Y-111092578D01*
X168816913Y-111095262D01*
X168816915Y-111095263D01*
X168966337Y-111161790D01*
X168975748Y-111165980D01*
X169059896Y-111183866D01*
X169145811Y-111202128D01*
X169145815Y-111202128D01*
X169152268Y-111203500D01*
X169332732Y-111203500D01*
X169339185Y-111202128D01*
X169339189Y-111202128D01*
X169425104Y-111183866D01*
X169509252Y-111165980D01*
X169518663Y-111161790D01*
X169668085Y-111095263D01*
X169668087Y-111095262D01*
X169674115Y-111092578D01*
X169679457Y-111088697D01*
X169814769Y-110990387D01*
X169814771Y-110990385D01*
X169820113Y-110986504D01*
X169833904Y-110971188D01*
X169936448Y-110857301D01*
X169936449Y-110857300D01*
X169940867Y-110852393D01*
X170031099Y-110696107D01*
X170086865Y-110524475D01*
X170098175Y-110416875D01*
X170105039Y-110351565D01*
X170105729Y-110345000D01*
X170104805Y-110336206D01*
X170087555Y-110172089D01*
X170087555Y-110172088D01*
X170086865Y-110165525D01*
X170078484Y-110139729D01*
X170033141Y-110000178D01*
X170031099Y-109993893D01*
X169940867Y-109837607D01*
X169927041Y-109822251D01*
X169824535Y-109708407D01*
X169824534Y-109708406D01*
X169820113Y-109703496D01*
X169808321Y-109694928D01*
X169679457Y-109601303D01*
X169679456Y-109601302D01*
X169674115Y-109597422D01*
X169668087Y-109594738D01*
X169668085Y-109594737D01*
X169515283Y-109526705D01*
X169515281Y-109526705D01*
X169509252Y-109524020D01*
X169419769Y-109505000D01*
X171248996Y-109505000D01*
X171249686Y-109511565D01*
X171267940Y-109685238D01*
X171268958Y-109694928D01*
X171327973Y-109876556D01*
X171423460Y-110041944D01*
X171427878Y-110046851D01*
X171427879Y-110046852D01*
X171449828Y-110071229D01*
X171551247Y-110183866D01*
X171705748Y-110296118D01*
X171711776Y-110298802D01*
X171711778Y-110298803D01*
X171867169Y-110367987D01*
X171880212Y-110373794D01*
X171971966Y-110393297D01*
X172060556Y-110412128D01*
X172060561Y-110412128D01*
X172067013Y-110413500D01*
X172257987Y-110413500D01*
X172264439Y-110412128D01*
X172264444Y-110412128D01*
X172353034Y-110393297D01*
X172444788Y-110373794D01*
X172457831Y-110367987D01*
X172613222Y-110298803D01*
X172613224Y-110298802D01*
X172619252Y-110296118D01*
X172773753Y-110183866D01*
X172875172Y-110071229D01*
X172897121Y-110046852D01*
X172897122Y-110046851D01*
X172901540Y-110041944D01*
X172997027Y-109876556D01*
X173056042Y-109694928D01*
X173057061Y-109685238D01*
X173075314Y-109511565D01*
X173076004Y-109505000D01*
X173070878Y-109456226D01*
X173056732Y-109321635D01*
X173056732Y-109321633D01*
X173056042Y-109315072D01*
X172997027Y-109133444D01*
X172989962Y-109121206D01*
X172947363Y-109047424D01*
X172901540Y-108968056D01*
X172868684Y-108931565D01*
X172778175Y-108831045D01*
X172778174Y-108831044D01*
X172773753Y-108826134D01*
X172657451Y-108741635D01*
X172624594Y-108717763D01*
X172624593Y-108717762D01*
X172619252Y-108713882D01*
X172613224Y-108711198D01*
X172613222Y-108711197D01*
X172450819Y-108638891D01*
X172450818Y-108638891D01*
X172444788Y-108636206D01*
X172351388Y-108616353D01*
X172264444Y-108597872D01*
X172264439Y-108597872D01*
X172257987Y-108596500D01*
X172067013Y-108596500D01*
X172060561Y-108597872D01*
X172060556Y-108597872D01*
X171973613Y-108616353D01*
X171880212Y-108636206D01*
X171874182Y-108638891D01*
X171874181Y-108638891D01*
X171711778Y-108711197D01*
X171711776Y-108711198D01*
X171705748Y-108713882D01*
X171700407Y-108717762D01*
X171700406Y-108717763D01*
X171667549Y-108741635D01*
X171551247Y-108826134D01*
X171546826Y-108831044D01*
X171546825Y-108831045D01*
X171456317Y-108931565D01*
X171423460Y-108968056D01*
X171377637Y-109047424D01*
X171335039Y-109121206D01*
X171327973Y-109133444D01*
X171268958Y-109315072D01*
X171268268Y-109321633D01*
X171268268Y-109321635D01*
X171254122Y-109456226D01*
X171248996Y-109505000D01*
X169419769Y-109505000D01*
X169339189Y-109487872D01*
X169339185Y-109487872D01*
X169332732Y-109486500D01*
X169152268Y-109486500D01*
X169145815Y-109487872D01*
X169145811Y-109487872D01*
X169065231Y-109505000D01*
X168975748Y-109524020D01*
X168969719Y-109526704D01*
X168969717Y-109526705D01*
X168816916Y-109594737D01*
X168816914Y-109594738D01*
X168810886Y-109597422D01*
X168805545Y-109601302D01*
X168805544Y-109601303D01*
X168670231Y-109699613D01*
X168670229Y-109699615D01*
X168664887Y-109703496D01*
X168660466Y-109708406D01*
X168660465Y-109708407D01*
X168557960Y-109822251D01*
X168544133Y-109837607D01*
X168453901Y-109993893D01*
X168451859Y-110000178D01*
X168406517Y-110139729D01*
X168398135Y-110165525D01*
X168397445Y-110172088D01*
X168397445Y-110172089D01*
X168380195Y-110336206D01*
X168379271Y-110345000D01*
X167190703Y-110345000D01*
X167247527Y-110246579D01*
X167306542Y-110064951D01*
X167314011Y-109993893D01*
X167325814Y-109881588D01*
X167326504Y-109875023D01*
X167322757Y-109839374D01*
X167307232Y-109691658D01*
X167307232Y-109691656D01*
X167306542Y-109685095D01*
X167247527Y-109503467D01*
X167152040Y-109338079D01*
X167131325Y-109315072D01*
X167028675Y-109201068D01*
X167028674Y-109201067D01*
X167024253Y-109196157D01*
X166918346Y-109119210D01*
X166874992Y-109062989D01*
X166868917Y-108992253D01*
X166883288Y-108954275D01*
X166903981Y-108918435D01*
X166957027Y-108826556D01*
X167016042Y-108644928D01*
X167020932Y-108598407D01*
X167035314Y-108461565D01*
X167036004Y-108455000D01*
X167027898Y-108377872D01*
X167016732Y-108271635D01*
X167016732Y-108271633D01*
X167016042Y-108265072D01*
X166957027Y-108083444D01*
X166947566Y-108067056D01*
X166909684Y-108001444D01*
X166861540Y-107918056D01*
X166837815Y-107891706D01*
X166738175Y-107781045D01*
X166738174Y-107781044D01*
X166733753Y-107776134D01*
X166597792Y-107677352D01*
X166584594Y-107667763D01*
X166584593Y-107667762D01*
X166579252Y-107663882D01*
X166573226Y-107661199D01*
X166573219Y-107661195D01*
X166459747Y-107610675D01*
X166405651Y-107564695D01*
X166385001Y-107496768D01*
X166385643Y-107483279D01*
X166385643Y-107482797D01*
X166386333Y-107476232D01*
X166369566Y-107316703D01*
X166367061Y-107292867D01*
X166367061Y-107292865D01*
X166366371Y-107286304D01*
X166307356Y-107104676D01*
X166211869Y-106939288D01*
X166112918Y-106829391D01*
X166088504Y-106802277D01*
X166088503Y-106802276D01*
X166084082Y-106797366D01*
X165929581Y-106685114D01*
X165923553Y-106682430D01*
X165923551Y-106682429D01*
X165761148Y-106610123D01*
X165761147Y-106610123D01*
X165755117Y-106607438D01*
X165661717Y-106587585D01*
X165574773Y-106569104D01*
X165574768Y-106569104D01*
X165568316Y-106567732D01*
X165377342Y-106567732D01*
X165370890Y-106569104D01*
X165370885Y-106569104D01*
X165283941Y-106587585D01*
X165190541Y-106607438D01*
X165184511Y-106610123D01*
X165184510Y-106610123D01*
X165022107Y-106682429D01*
X165022105Y-106682430D01*
X165016077Y-106685114D01*
X164861576Y-106797366D01*
X164857155Y-106802276D01*
X164857154Y-106802277D01*
X164832741Y-106829391D01*
X164733789Y-106939288D01*
X164638302Y-107104676D01*
X164579287Y-107286304D01*
X164578597Y-107292865D01*
X164578597Y-107292867D01*
X164576092Y-107316703D01*
X164559325Y-107476232D01*
X164560015Y-107482797D01*
X164572887Y-107605263D01*
X164579287Y-107666160D01*
X164638302Y-107847788D01*
X164648445Y-107865356D01*
X164665182Y-107934352D01*
X164641961Y-108001444D01*
X164586153Y-108045330D01*
X164513128Y-108051602D01*
X164354444Y-108017872D01*
X164354439Y-108017872D01*
X164347987Y-108016500D01*
X164157013Y-108016500D01*
X164150561Y-108017872D01*
X164150556Y-108017872D01*
X164063613Y-108036353D01*
X163970212Y-108056206D01*
X163964182Y-108058891D01*
X163964181Y-108058891D01*
X163801778Y-108131197D01*
X163801776Y-108131198D01*
X163795748Y-108133882D01*
X163641247Y-108246134D01*
X163636826Y-108251044D01*
X163636825Y-108251045D01*
X163525787Y-108374366D01*
X163513460Y-108388056D01*
X163417973Y-108553444D01*
X163358958Y-108735072D01*
X163338996Y-108925000D01*
X149164455Y-108925000D01*
X149151099Y-108883893D01*
X149060867Y-108727607D01*
X149052004Y-108717763D01*
X148944535Y-108598407D01*
X148944534Y-108598406D01*
X148940113Y-108593496D01*
X148901809Y-108565666D01*
X148799457Y-108491303D01*
X148799456Y-108491302D01*
X148794115Y-108487422D01*
X148788087Y-108484738D01*
X148788085Y-108484737D01*
X148635283Y-108416705D01*
X148635281Y-108416705D01*
X148629252Y-108414020D01*
X148534001Y-108393774D01*
X148459189Y-108377872D01*
X148459185Y-108377872D01*
X148452732Y-108376500D01*
X148272268Y-108376500D01*
X148265815Y-108377872D01*
X148265811Y-108377872D01*
X148190999Y-108393774D01*
X148095748Y-108414020D01*
X148089719Y-108416704D01*
X148089717Y-108416705D01*
X147936916Y-108484737D01*
X147936914Y-108484738D01*
X147930886Y-108487422D01*
X147925545Y-108491302D01*
X147925544Y-108491303D01*
X147790231Y-108589613D01*
X147790229Y-108589615D01*
X147784887Y-108593496D01*
X147780466Y-108598406D01*
X147780465Y-108598407D01*
X147672997Y-108717763D01*
X147664133Y-108727607D01*
X147573901Y-108883893D01*
X147518135Y-109055525D01*
X147499271Y-109235000D01*
X147499961Y-109241565D01*
X147514065Y-109375748D01*
X147518135Y-109414475D01*
X147518252Y-109414836D01*
X147513027Y-109483326D01*
X147470212Y-109539959D01*
X147446431Y-109553841D01*
X147400739Y-109574184D01*
X147400737Y-109574185D01*
X147394709Y-109576869D01*
X147389368Y-109580749D01*
X147389367Y-109580750D01*
X147357551Y-109603866D01*
X147240208Y-109689121D01*
X147235787Y-109694031D01*
X147235786Y-109694032D01*
X147148378Y-109791109D01*
X147112421Y-109831043D01*
X147109120Y-109836761D01*
X147107611Y-109839374D01*
X147106343Y-109840583D01*
X147105237Y-109842105D01*
X147104959Y-109841903D01*
X147056226Y-109888365D01*
X146986512Y-109901799D01*
X146920602Y-109875410D01*
X146904865Y-109860688D01*
X146873753Y-109826134D01*
X146719252Y-109713882D01*
X146713224Y-109711198D01*
X146713222Y-109711197D01*
X146550819Y-109638891D01*
X146550818Y-109638891D01*
X146544788Y-109636206D01*
X146451387Y-109616353D01*
X146364444Y-109597872D01*
X146364439Y-109597872D01*
X146357987Y-109596500D01*
X146167013Y-109596500D01*
X146160561Y-109597872D01*
X146160556Y-109597872D01*
X146073613Y-109616353D01*
X145980212Y-109636206D01*
X145974182Y-109638891D01*
X145974181Y-109638891D01*
X145811778Y-109711197D01*
X145811776Y-109711198D01*
X145805748Y-109713882D01*
X145651247Y-109826134D01*
X145523460Y-109968056D01*
X145427973Y-110133444D01*
X145368958Y-110315072D01*
X145368268Y-110321633D01*
X145368268Y-110321635D01*
X145359375Y-110406249D01*
X145348996Y-110505000D01*
X130770500Y-110505000D01*
X130770500Y-106855000D01*
X146059271Y-106855000D01*
X146059961Y-106861565D01*
X146077297Y-107026498D01*
X146078135Y-107034475D01*
X146080175Y-107040753D01*
X146080175Y-107040754D01*
X146111325Y-107136625D01*
X146133901Y-107206107D01*
X146224133Y-107362393D01*
X146344887Y-107496504D01*
X146350229Y-107500385D01*
X146350231Y-107500387D01*
X146459762Y-107579966D01*
X146490885Y-107602578D01*
X146496913Y-107605262D01*
X146496915Y-107605263D01*
X146649717Y-107673295D01*
X146655748Y-107675980D01*
X146744008Y-107694740D01*
X146825811Y-107712128D01*
X146825815Y-107712128D01*
X146832268Y-107713500D01*
X147012732Y-107713500D01*
X147019185Y-107712128D01*
X147019189Y-107712128D01*
X147097417Y-107695500D01*
X148848996Y-107695500D01*
X148868958Y-107885428D01*
X148927973Y-108067056D01*
X148931276Y-108072778D01*
X148931277Y-108072779D01*
X148941063Y-108089729D01*
X149023460Y-108232444D01*
X149027878Y-108237351D01*
X149027879Y-108237352D01*
X149052838Y-108265072D01*
X149151247Y-108374366D01*
X149305748Y-108486618D01*
X149311776Y-108489302D01*
X149311778Y-108489303D01*
X149474181Y-108561609D01*
X149480212Y-108564294D01*
X149573612Y-108584147D01*
X149660556Y-108602628D01*
X149660561Y-108602628D01*
X149667013Y-108604000D01*
X149857987Y-108604000D01*
X149864439Y-108602628D01*
X149864444Y-108602628D01*
X149951388Y-108584147D01*
X150044788Y-108564294D01*
X150050819Y-108561609D01*
X150213222Y-108489303D01*
X150213224Y-108489302D01*
X150219252Y-108486618D01*
X150373753Y-108374366D01*
X150472162Y-108265072D01*
X150497121Y-108237352D01*
X150497122Y-108237351D01*
X150501540Y-108232444D01*
X150583937Y-108089729D01*
X150593723Y-108072779D01*
X150593724Y-108072778D01*
X150597027Y-108067056D01*
X150656042Y-107885428D01*
X150676004Y-107695500D01*
X150672398Y-107661195D01*
X150656732Y-107512135D01*
X150656732Y-107512133D01*
X150656042Y-107505572D01*
X150597027Y-107323944D01*
X150592847Y-107316703D01*
X150532298Y-107211830D01*
X150501540Y-107158556D01*
X150409225Y-107056029D01*
X150378175Y-107021545D01*
X150378174Y-107021544D01*
X150373753Y-107016634D01*
X150219252Y-106904382D01*
X150213224Y-106901698D01*
X150213222Y-106901697D01*
X150050819Y-106829391D01*
X150050818Y-106829391D01*
X150044788Y-106826706D01*
X149951388Y-106806853D01*
X149864444Y-106788372D01*
X149864439Y-106788372D01*
X149857987Y-106787000D01*
X149667013Y-106787000D01*
X149660561Y-106788372D01*
X149660556Y-106788372D01*
X149573613Y-106806853D01*
X149480212Y-106826706D01*
X149474182Y-106829391D01*
X149474181Y-106829391D01*
X149311778Y-106901697D01*
X149311776Y-106901698D01*
X149305748Y-106904382D01*
X149151247Y-107016634D01*
X149146826Y-107021544D01*
X149146825Y-107021545D01*
X149115776Y-107056029D01*
X149023460Y-107158556D01*
X148992702Y-107211830D01*
X148932154Y-107316703D01*
X148927973Y-107323944D01*
X148868958Y-107505572D01*
X148868268Y-107512133D01*
X148868268Y-107512135D01*
X148852602Y-107661195D01*
X148848996Y-107695500D01*
X147097417Y-107695500D01*
X147100992Y-107694740D01*
X147189252Y-107675980D01*
X147195283Y-107673295D01*
X147348085Y-107605263D01*
X147348087Y-107605262D01*
X147354115Y-107602578D01*
X147385238Y-107579966D01*
X147494769Y-107500387D01*
X147494771Y-107500385D01*
X147500113Y-107496504D01*
X147620867Y-107362393D01*
X147711099Y-107206107D01*
X147733675Y-107136624D01*
X147764825Y-107040754D01*
X147764825Y-107040753D01*
X147766865Y-107034475D01*
X147767704Y-107026498D01*
X147785039Y-106861565D01*
X147785729Y-106855000D01*
X147781933Y-106818888D01*
X147767555Y-106682089D01*
X147767555Y-106682088D01*
X147766865Y-106675525D01*
X147756952Y-106645014D01*
X147713141Y-106510178D01*
X147711099Y-106503893D01*
X147620867Y-106347607D01*
X147607873Y-106333175D01*
X147504535Y-106218407D01*
X147504534Y-106218406D01*
X147500113Y-106213496D01*
X147354115Y-106107422D01*
X147348087Y-106104738D01*
X147348085Y-106104737D01*
X147195283Y-106036705D01*
X147195281Y-106036705D01*
X147189252Y-106034020D01*
X147086257Y-106012128D01*
X147019189Y-105997872D01*
X147019185Y-105997872D01*
X147012732Y-105996500D01*
X146832268Y-105996500D01*
X146825815Y-105997872D01*
X146825811Y-105997872D01*
X146758743Y-106012128D01*
X146655748Y-106034020D01*
X146649719Y-106036704D01*
X146649717Y-106036705D01*
X146496916Y-106104737D01*
X146496914Y-106104738D01*
X146490886Y-106107422D01*
X146485545Y-106111302D01*
X146485544Y-106111303D01*
X146350231Y-106209613D01*
X146350229Y-106209615D01*
X146344887Y-106213496D01*
X146340466Y-106218406D01*
X146340465Y-106218407D01*
X146237128Y-106333175D01*
X146224133Y-106347607D01*
X146133901Y-106503893D01*
X146131859Y-106510178D01*
X146088049Y-106645014D01*
X146078135Y-106675525D01*
X146077445Y-106682088D01*
X146077445Y-106682089D01*
X146063067Y-106818888D01*
X146059271Y-106855000D01*
X130770500Y-106855000D01*
X130770500Y-104585000D01*
X148319271Y-104585000D01*
X148319961Y-104591565D01*
X148336976Y-104753444D01*
X148338135Y-104764475D01*
X148340175Y-104770753D01*
X148340175Y-104770754D01*
X148359208Y-104829331D01*
X148393901Y-104936107D01*
X148484133Y-105092393D01*
X148488551Y-105097300D01*
X148488552Y-105097301D01*
X148523542Y-105136161D01*
X148604887Y-105226504D01*
X148610229Y-105230385D01*
X148610231Y-105230387D01*
X148722833Y-105312197D01*
X148750885Y-105332578D01*
X148756913Y-105335262D01*
X148756915Y-105335263D01*
X148899628Y-105398803D01*
X148915748Y-105405980D01*
X148974016Y-105418365D01*
X149085811Y-105442128D01*
X149085815Y-105442128D01*
X149092268Y-105443500D01*
X149272732Y-105443500D01*
X149279185Y-105442128D01*
X149279189Y-105442128D01*
X149390984Y-105418365D01*
X149449252Y-105405980D01*
X149465372Y-105398803D01*
X149608085Y-105335263D01*
X149608087Y-105335262D01*
X149614115Y-105332578D01*
X149642167Y-105312197D01*
X149754769Y-105230387D01*
X149754771Y-105230385D01*
X149760113Y-105226504D01*
X149841458Y-105136161D01*
X149876448Y-105097301D01*
X149876449Y-105097300D01*
X149880867Y-105092393D01*
X149971099Y-104936107D01*
X150005792Y-104829331D01*
X150024825Y-104770754D01*
X150024825Y-104770753D01*
X150026865Y-104764475D01*
X150028025Y-104753444D01*
X150043627Y-104605000D01*
X150728996Y-104605000D01*
X150729686Y-104611565D01*
X150747818Y-104784077D01*
X150748958Y-104794928D01*
X150807973Y-104976556D01*
X150903460Y-105141944D01*
X151031247Y-105283866D01*
X151098293Y-105332578D01*
X151133504Y-105358160D01*
X151185748Y-105396118D01*
X151191776Y-105398802D01*
X151191778Y-105398803D01*
X151352299Y-105470271D01*
X151360212Y-105473794D01*
X151437730Y-105490271D01*
X151540556Y-105512128D01*
X151540561Y-105512128D01*
X151547013Y-105513500D01*
X151737987Y-105513500D01*
X151744439Y-105512128D01*
X151744444Y-105512128D01*
X151847270Y-105490271D01*
X151924788Y-105473794D01*
X151932701Y-105470271D01*
X152093222Y-105398803D01*
X152093224Y-105398802D01*
X152099252Y-105396118D01*
X152151497Y-105358160D01*
X152186707Y-105332578D01*
X152253753Y-105283866D01*
X152381540Y-105141944D01*
X152391323Y-105125000D01*
X158308996Y-105125000D01*
X158328958Y-105314928D01*
X158387973Y-105496556D01*
X158391276Y-105502278D01*
X158391277Y-105502279D01*
X158425186Y-105561010D01*
X158483460Y-105661944D01*
X158487878Y-105666851D01*
X158487879Y-105666852D01*
X158588817Y-105778955D01*
X158611247Y-105803866D01*
X158765748Y-105916118D01*
X158771776Y-105918802D01*
X158771778Y-105918803D01*
X158898624Y-105975278D01*
X158940212Y-105993794D01*
X159026466Y-106012128D01*
X159120556Y-106032128D01*
X159120561Y-106032128D01*
X159127013Y-106033500D01*
X159317987Y-106033500D01*
X159324439Y-106032128D01*
X159324444Y-106032128D01*
X159418534Y-106012128D01*
X159504788Y-105993794D01*
X159546376Y-105975278D01*
X159673222Y-105918803D01*
X159673224Y-105918802D01*
X159679252Y-105916118D01*
X159833753Y-105803866D01*
X159856183Y-105778955D01*
X159957121Y-105666852D01*
X159957122Y-105666851D01*
X159961540Y-105661944D01*
X160019814Y-105561010D01*
X160053723Y-105502279D01*
X160053724Y-105502278D01*
X160057027Y-105496556D01*
X160116042Y-105314928D01*
X160136004Y-105125000D01*
X160133902Y-105105000D01*
X160924496Y-105105000D01*
X160925186Y-105111565D01*
X160937675Y-105230387D01*
X160944458Y-105294928D01*
X161003473Y-105476556D01*
X161006776Y-105482278D01*
X161006777Y-105482279D01*
X161024803Y-105513500D01*
X161098960Y-105641944D01*
X161103378Y-105646851D01*
X161103379Y-105646852D01*
X161222325Y-105778955D01*
X161226747Y-105783866D01*
X161381248Y-105896118D01*
X161387276Y-105898802D01*
X161387278Y-105898803D01*
X161548931Y-105970775D01*
X161555712Y-105973794D01*
X161649113Y-105993647D01*
X161736056Y-106012128D01*
X161736061Y-106012128D01*
X161742513Y-106013500D01*
X161933487Y-106013500D01*
X161939939Y-106012128D01*
X161939944Y-106012128D01*
X162026887Y-105993647D01*
X162120288Y-105973794D01*
X162127069Y-105970775D01*
X162288722Y-105898803D01*
X162288724Y-105898802D01*
X162294752Y-105896118D01*
X162449253Y-105783866D01*
X162453675Y-105778955D01*
X162572621Y-105646852D01*
X162572622Y-105646851D01*
X162577040Y-105641944D01*
X162651197Y-105513500D01*
X162669223Y-105482279D01*
X162669224Y-105482278D01*
X162672527Y-105476556D01*
X162731542Y-105294928D01*
X162737841Y-105235000D01*
X163238996Y-105235000D01*
X163239686Y-105241565D01*
X163256967Y-105405980D01*
X163258958Y-105424928D01*
X163317973Y-105606556D01*
X163413460Y-105771944D01*
X163417878Y-105776851D01*
X163417879Y-105776852D01*
X163445699Y-105807749D01*
X163541247Y-105913866D01*
X163695748Y-106026118D01*
X163701776Y-106028802D01*
X163701778Y-106028803D01*
X163864181Y-106101109D01*
X163870212Y-106103794D01*
X163963613Y-106123647D01*
X164050556Y-106142128D01*
X164050561Y-106142128D01*
X164057013Y-106143500D01*
X164247987Y-106143500D01*
X164254439Y-106142128D01*
X164254444Y-106142128D01*
X164341387Y-106123647D01*
X164434788Y-106103794D01*
X164440819Y-106101109D01*
X164603222Y-106028803D01*
X164603224Y-106028802D01*
X164609252Y-106026118D01*
X164763753Y-105913866D01*
X164859301Y-105807749D01*
X164887121Y-105776852D01*
X164887122Y-105776851D01*
X164891540Y-105771944D01*
X164987027Y-105606556D01*
X165046042Y-105424928D01*
X165048034Y-105405980D01*
X165058382Y-105307526D01*
X173594550Y-105307526D01*
X173594774Y-105312192D01*
X173594774Y-105312197D01*
X173595207Y-105321206D01*
X173607447Y-105576019D01*
X173659888Y-105839656D01*
X173750720Y-106092646D01*
X173877950Y-106329431D01*
X173880741Y-106333168D01*
X173880745Y-106333175D01*
X173895792Y-106353325D01*
X174038781Y-106544810D01*
X174042090Y-106548090D01*
X174042095Y-106548096D01*
X174170642Y-106675525D01*
X174229680Y-106734050D01*
X174233442Y-106736808D01*
X174233445Y-106736811D01*
X174345385Y-106818888D01*
X174388493Y-106875299D01*
X174394260Y-106946061D01*
X174360855Y-107008707D01*
X174298883Y-107043349D01*
X174270880Y-107046500D01*
X174059366Y-107046500D01*
X173997184Y-107053255D01*
X173860795Y-107104385D01*
X173744239Y-107191739D01*
X173656885Y-107308295D01*
X173605755Y-107444684D01*
X173599000Y-107506866D01*
X173599000Y-110203134D01*
X173605755Y-110265316D01*
X173656885Y-110401705D01*
X173744239Y-110518261D01*
X173860795Y-110605615D01*
X173997184Y-110656745D01*
X174059366Y-110663500D01*
X176755634Y-110663500D01*
X176817816Y-110656745D01*
X176954205Y-110605615D01*
X177070761Y-110518261D01*
X177158115Y-110401705D01*
X177209245Y-110265316D01*
X177216000Y-110203134D01*
X177216000Y-107506866D01*
X177209245Y-107444684D01*
X177158115Y-107308295D01*
X177070761Y-107191739D01*
X176954205Y-107104385D01*
X176817816Y-107053255D01*
X176755634Y-107046500D01*
X176551980Y-107046500D01*
X176483859Y-107026498D01*
X176437366Y-106972842D01*
X176427262Y-106902568D01*
X176456756Y-106837988D01*
X176473690Y-106822446D01*
X176473490Y-106822210D01*
X176574367Y-106736811D01*
X176678649Y-106648530D01*
X176855882Y-106446434D01*
X177001297Y-106220361D01*
X177111699Y-105975278D01*
X177129019Y-105913866D01*
X177183393Y-105721072D01*
X177183394Y-105721069D01*
X177184663Y-105716568D01*
X177193532Y-105646852D01*
X177218188Y-105453045D01*
X177218188Y-105453041D01*
X177218586Y-105449915D01*
X177221071Y-105355000D01*
X177202492Y-105105000D01*
X177201496Y-105091592D01*
X177201496Y-105091591D01*
X177201150Y-105086937D01*
X177184754Y-105014476D01*
X177142861Y-104829331D01*
X177142860Y-104829326D01*
X177141827Y-104824763D01*
X177044402Y-104574238D01*
X176911018Y-104340864D01*
X176903398Y-104331197D01*
X176803912Y-104205000D01*
X176744605Y-104129769D01*
X176548817Y-103945591D01*
X176378909Y-103827721D01*
X176331799Y-103795039D01*
X176331796Y-103795037D01*
X176327957Y-103792374D01*
X176289806Y-103773560D01*
X176091064Y-103675551D01*
X176091061Y-103675550D01*
X176086876Y-103673486D01*
X176039245Y-103658239D01*
X175887986Y-103609821D01*
X175830870Y-103591538D01*
X175826263Y-103590788D01*
X175826260Y-103590787D01*
X175570174Y-103549081D01*
X175570175Y-103549081D01*
X175565563Y-103548330D01*
X175435219Y-103546624D01*
X175301461Y-103544873D01*
X175301458Y-103544873D01*
X175296784Y-103544812D01*
X175030437Y-103581060D01*
X174772374Y-103656278D01*
X174768121Y-103658238D01*
X174768120Y-103658239D01*
X174738134Y-103672063D01*
X174528263Y-103768815D01*
X174495484Y-103790306D01*
X174307381Y-103913631D01*
X174307376Y-103913635D01*
X174303468Y-103916197D01*
X174267380Y-103948407D01*
X174110571Y-104088365D01*
X174102926Y-104095188D01*
X173931044Y-104301854D01*
X173791596Y-104531656D01*
X173789787Y-104535970D01*
X173789785Y-104535974D01*
X173706980Y-104733444D01*
X173687648Y-104779545D01*
X173621481Y-105040077D01*
X173594550Y-105307526D01*
X165058382Y-105307526D01*
X165065314Y-105241565D01*
X165066004Y-105235000D01*
X165064595Y-105221593D01*
X165055616Y-105136161D01*
X165068388Y-105066323D01*
X165116890Y-105014476D01*
X165185723Y-104997082D01*
X165232175Y-105007884D01*
X165363432Y-105066323D01*
X165380212Y-105073794D01*
X165442045Y-105086937D01*
X165560556Y-105112128D01*
X165560561Y-105112128D01*
X165567013Y-105113500D01*
X165757987Y-105113500D01*
X165764439Y-105112128D01*
X165764444Y-105112128D01*
X165882955Y-105086937D01*
X165944788Y-105073794D01*
X165950819Y-105071109D01*
X166113222Y-104998803D01*
X166113224Y-104998802D01*
X166119252Y-104996118D01*
X166273753Y-104883866D01*
X166297294Y-104857721D01*
X166397121Y-104746852D01*
X166397122Y-104746851D01*
X166401540Y-104741944D01*
X166488362Y-104591565D01*
X166493723Y-104582279D01*
X166493724Y-104582278D01*
X166497027Y-104576556D01*
X166556042Y-104394928D01*
X166576004Y-104205000D01*
X166564841Y-104098787D01*
X166556732Y-104021635D01*
X166556732Y-104021633D01*
X166556042Y-104015072D01*
X166497027Y-103833444D01*
X166401540Y-103668056D01*
X166293684Y-103548269D01*
X166278175Y-103531045D01*
X166278174Y-103531044D01*
X166273753Y-103526134D01*
X166119252Y-103413882D01*
X166113224Y-103411198D01*
X166113222Y-103411197D01*
X165950819Y-103338891D01*
X165950818Y-103338891D01*
X165944788Y-103336206D01*
X165851387Y-103316353D01*
X165764444Y-103297872D01*
X165764439Y-103297872D01*
X165757987Y-103296500D01*
X165567013Y-103296500D01*
X165560561Y-103297872D01*
X165560556Y-103297872D01*
X165473612Y-103316353D01*
X165380212Y-103336206D01*
X165374182Y-103338891D01*
X165374181Y-103338891D01*
X165211778Y-103411197D01*
X165211776Y-103411198D01*
X165205748Y-103413882D01*
X165051247Y-103526134D01*
X165046826Y-103531044D01*
X165046825Y-103531045D01*
X165031317Y-103548269D01*
X164923460Y-103668056D01*
X164827973Y-103833444D01*
X164768958Y-104015072D01*
X164768268Y-104021633D01*
X164768268Y-104021635D01*
X164760159Y-104098787D01*
X164748996Y-104205000D01*
X164749686Y-104211565D01*
X164759384Y-104303839D01*
X164746612Y-104373677D01*
X164698110Y-104425524D01*
X164629277Y-104442918D01*
X164582825Y-104432116D01*
X164440819Y-104368891D01*
X164440818Y-104368891D01*
X164434788Y-104366206D01*
X164334655Y-104344922D01*
X164254444Y-104327872D01*
X164254439Y-104327872D01*
X164247987Y-104326500D01*
X164057013Y-104326500D01*
X164050561Y-104327872D01*
X164050556Y-104327872D01*
X163970345Y-104344922D01*
X163870212Y-104366206D01*
X163864182Y-104368891D01*
X163864181Y-104368891D01*
X163701778Y-104441197D01*
X163701776Y-104441198D01*
X163695748Y-104443882D01*
X163541247Y-104556134D01*
X163536826Y-104561044D01*
X163536825Y-104561045D01*
X163516924Y-104583148D01*
X163413460Y-104698056D01*
X163368903Y-104775231D01*
X163340306Y-104824763D01*
X163317973Y-104863444D01*
X163258958Y-105045072D01*
X163258268Y-105051633D01*
X163258268Y-105051635D01*
X163253349Y-105098435D01*
X163238996Y-105235000D01*
X162737841Y-105235000D01*
X162738326Y-105230387D01*
X162750814Y-105111565D01*
X162751504Y-105105000D01*
X162740342Y-104998803D01*
X162732232Y-104921635D01*
X162732232Y-104921633D01*
X162731542Y-104915072D01*
X162672527Y-104733444D01*
X162577040Y-104568056D01*
X162566306Y-104556134D01*
X162453675Y-104431045D01*
X162453674Y-104431044D01*
X162449253Y-104426134D01*
X162327621Y-104337763D01*
X162300094Y-104317763D01*
X162300093Y-104317762D01*
X162294752Y-104313882D01*
X162288724Y-104311198D01*
X162288722Y-104311197D01*
X162126319Y-104238891D01*
X162126318Y-104238891D01*
X162120288Y-104236206D01*
X162004362Y-104211565D01*
X161939944Y-104197872D01*
X161939939Y-104197872D01*
X161933487Y-104196500D01*
X161742513Y-104196500D01*
X161736061Y-104197872D01*
X161736056Y-104197872D01*
X161671638Y-104211565D01*
X161555712Y-104236206D01*
X161549682Y-104238891D01*
X161549681Y-104238891D01*
X161387278Y-104311197D01*
X161387276Y-104311198D01*
X161381248Y-104313882D01*
X161375907Y-104317762D01*
X161375906Y-104317763D01*
X161348379Y-104337763D01*
X161226747Y-104426134D01*
X161222326Y-104431044D01*
X161222325Y-104431045D01*
X161109695Y-104556134D01*
X161098960Y-104568056D01*
X161003473Y-104733444D01*
X160944458Y-104915072D01*
X160943768Y-104921633D01*
X160943768Y-104921635D01*
X160935658Y-104998803D01*
X160924496Y-105105000D01*
X160133902Y-105105000D01*
X160132493Y-105091592D01*
X160116732Y-104941635D01*
X160116732Y-104941633D01*
X160116042Y-104935072D01*
X160057027Y-104753444D01*
X160050388Y-104741944D01*
X159975113Y-104611565D01*
X159961540Y-104588056D01*
X159956339Y-104582279D01*
X159838175Y-104451045D01*
X159838174Y-104451044D01*
X159833753Y-104446134D01*
X159679252Y-104333882D01*
X159673224Y-104331198D01*
X159673222Y-104331197D01*
X159510819Y-104258891D01*
X159510818Y-104258891D01*
X159504788Y-104256206D01*
X159397702Y-104233444D01*
X159324444Y-104217872D01*
X159324439Y-104217872D01*
X159317987Y-104216500D01*
X159127013Y-104216500D01*
X159120561Y-104217872D01*
X159120556Y-104217872D01*
X159047298Y-104233444D01*
X158940212Y-104256206D01*
X158934182Y-104258891D01*
X158934181Y-104258891D01*
X158771778Y-104331197D01*
X158771776Y-104331198D01*
X158765748Y-104333882D01*
X158611247Y-104446134D01*
X158606826Y-104451044D01*
X158606825Y-104451045D01*
X158488662Y-104582279D01*
X158483460Y-104588056D01*
X158469887Y-104611565D01*
X158394613Y-104741944D01*
X158387973Y-104753444D01*
X158328958Y-104935072D01*
X158328268Y-104941633D01*
X158328268Y-104941635D01*
X158312507Y-105091592D01*
X158308996Y-105125000D01*
X152391323Y-105125000D01*
X152477027Y-104976556D01*
X152536042Y-104794928D01*
X152537183Y-104784077D01*
X152555314Y-104611565D01*
X152556004Y-104605000D01*
X152538899Y-104442251D01*
X152536732Y-104421635D01*
X152536732Y-104421633D01*
X152536042Y-104415072D01*
X152477027Y-104233444D01*
X152468037Y-104217872D01*
X152417170Y-104129769D01*
X152381540Y-104068056D01*
X152362452Y-104046856D01*
X152258175Y-103931045D01*
X152258174Y-103931044D01*
X152253753Y-103926134D01*
X152224665Y-103905000D01*
X153248996Y-103905000D01*
X153249686Y-103911565D01*
X153267138Y-104077607D01*
X153268958Y-104094928D01*
X153327973Y-104276556D01*
X153423460Y-104441944D01*
X153427878Y-104446851D01*
X153427879Y-104446852D01*
X153500637Y-104527658D01*
X153551247Y-104583866D01*
X153705748Y-104696118D01*
X153711776Y-104698802D01*
X153711778Y-104698803D01*
X153834505Y-104753444D01*
X153880212Y-104773794D01*
X153948763Y-104788365D01*
X154060556Y-104812128D01*
X154060561Y-104812128D01*
X154067013Y-104813500D01*
X154257987Y-104813500D01*
X154264439Y-104812128D01*
X154264444Y-104812128D01*
X154376237Y-104788365D01*
X154444788Y-104773794D01*
X154490495Y-104753444D01*
X154613222Y-104698803D01*
X154613224Y-104698802D01*
X154619252Y-104696118D01*
X154773753Y-104583866D01*
X154824363Y-104527658D01*
X154897121Y-104446852D01*
X154897122Y-104446851D01*
X154901540Y-104441944D01*
X154997027Y-104276556D01*
X155056042Y-104094928D01*
X155057863Y-104077607D01*
X155075314Y-103911565D01*
X155076004Y-103905000D01*
X155075873Y-103903750D01*
X155095316Y-103837531D01*
X155148972Y-103791038D01*
X155219246Y-103780934D01*
X155283826Y-103810428D01*
X155294944Y-103821335D01*
X155351247Y-103883866D01*
X155450343Y-103955864D01*
X155498064Y-103990535D01*
X155505748Y-103996118D01*
X155511776Y-103998802D01*
X155511778Y-103998803D01*
X155656900Y-104063415D01*
X155680212Y-104073794D01*
X155748763Y-104088365D01*
X155860556Y-104112128D01*
X155860561Y-104112128D01*
X155867013Y-104113500D01*
X156057987Y-104113500D01*
X156064439Y-104112128D01*
X156064444Y-104112128D01*
X156176237Y-104088365D01*
X156244788Y-104073794D01*
X156268100Y-104063415D01*
X156413222Y-103998803D01*
X156413224Y-103998802D01*
X156419252Y-103996118D01*
X156426937Y-103990535D01*
X156474657Y-103955864D01*
X156573753Y-103883866D01*
X156613494Y-103839729D01*
X156697121Y-103746852D01*
X156697122Y-103746851D01*
X156701540Y-103741944D01*
X156771602Y-103620594D01*
X156793723Y-103582279D01*
X156793724Y-103582278D01*
X156797027Y-103576556D01*
X156856042Y-103394928D01*
X156858266Y-103373774D01*
X156875314Y-103211565D01*
X156876004Y-103205000D01*
X156859883Y-103051618D01*
X156856732Y-103021635D01*
X156856732Y-103021633D01*
X156856042Y-103015072D01*
X156797027Y-102833444D01*
X156701540Y-102668056D01*
X156646273Y-102606675D01*
X156645111Y-102605385D01*
X159620228Y-102605385D01*
X159640190Y-102795313D01*
X159699205Y-102976941D01*
X159702508Y-102982663D01*
X159702509Y-102982664D01*
X159717595Y-103008794D01*
X159794692Y-103142329D01*
X159799110Y-103147236D01*
X159799111Y-103147237D01*
X159874572Y-103231045D01*
X159922479Y-103284251D01*
X160076980Y-103396503D01*
X160083008Y-103399187D01*
X160083010Y-103399188D01*
X160176538Y-103440829D01*
X160251444Y-103474179D01*
X160344845Y-103494032D01*
X160431788Y-103512513D01*
X160431793Y-103512513D01*
X160438245Y-103513885D01*
X160629219Y-103513885D01*
X160635671Y-103512513D01*
X160635676Y-103512513D01*
X160722619Y-103494032D01*
X160816020Y-103474179D01*
X160890926Y-103440829D01*
X160984454Y-103399188D01*
X160984456Y-103399187D01*
X160990484Y-103396503D01*
X161144985Y-103284251D01*
X161192892Y-103231045D01*
X161268353Y-103147237D01*
X161268354Y-103147236D01*
X161272772Y-103142329D01*
X161349869Y-103008794D01*
X161364955Y-102982664D01*
X161364956Y-102982663D01*
X161368259Y-102976941D01*
X161427274Y-102795313D01*
X161447236Y-102605385D01*
X161439423Y-102531045D01*
X161427964Y-102422020D01*
X161427964Y-102422018D01*
X161427274Y-102415457D01*
X161368259Y-102233829D01*
X161272772Y-102068441D01*
X161144985Y-101926519D01*
X160990484Y-101814267D01*
X160984456Y-101811583D01*
X160984454Y-101811582D01*
X160822051Y-101739276D01*
X160822050Y-101739276D01*
X160816020Y-101736591D01*
X160722619Y-101716738D01*
X160635676Y-101698257D01*
X160635671Y-101698257D01*
X160629219Y-101696885D01*
X160438245Y-101696885D01*
X160431793Y-101698257D01*
X160431788Y-101698257D01*
X160344845Y-101716738D01*
X160251444Y-101736591D01*
X160245414Y-101739276D01*
X160245413Y-101739276D01*
X160083010Y-101811582D01*
X160083008Y-101811583D01*
X160076980Y-101814267D01*
X159922479Y-101926519D01*
X159794692Y-102068441D01*
X159699205Y-102233829D01*
X159640190Y-102415457D01*
X159639500Y-102422018D01*
X159639500Y-102422020D01*
X159628041Y-102531045D01*
X159620228Y-102605385D01*
X156645111Y-102605385D01*
X156578175Y-102531045D01*
X156578174Y-102531044D01*
X156573753Y-102526134D01*
X156419252Y-102413882D01*
X156413224Y-102411198D01*
X156413222Y-102411197D01*
X156250819Y-102338891D01*
X156250818Y-102338891D01*
X156244788Y-102336206D01*
X156125155Y-102310777D01*
X156064444Y-102297872D01*
X156064439Y-102297872D01*
X156057987Y-102296500D01*
X155867013Y-102296500D01*
X155860561Y-102297872D01*
X155860556Y-102297872D01*
X155799845Y-102310777D01*
X155680212Y-102336206D01*
X155674182Y-102338891D01*
X155674181Y-102338891D01*
X155511778Y-102411197D01*
X155511776Y-102411198D01*
X155505748Y-102413882D01*
X155351247Y-102526134D01*
X155346826Y-102531044D01*
X155346825Y-102531045D01*
X155278728Y-102606675D01*
X155223460Y-102668056D01*
X155127973Y-102833444D01*
X155068958Y-103015072D01*
X155068268Y-103021633D01*
X155068268Y-103021635D01*
X155065117Y-103051618D01*
X155048996Y-103205000D01*
X155049127Y-103206250D01*
X155029684Y-103272469D01*
X154976028Y-103318962D01*
X154905754Y-103329066D01*
X154841174Y-103299572D01*
X154830056Y-103288665D01*
X154773753Y-103226134D01*
X154619252Y-103113882D01*
X154613224Y-103111198D01*
X154613222Y-103111197D01*
X154450819Y-103038891D01*
X154450818Y-103038891D01*
X154444788Y-103036206D01*
X154345361Y-103015072D01*
X154264444Y-102997872D01*
X154264439Y-102997872D01*
X154257987Y-102996500D01*
X154067013Y-102996500D01*
X154060561Y-102997872D01*
X154060556Y-102997872D01*
X153979639Y-103015072D01*
X153880212Y-103036206D01*
X153874182Y-103038891D01*
X153874181Y-103038891D01*
X153711778Y-103111197D01*
X153711776Y-103111198D01*
X153705748Y-103113882D01*
X153551247Y-103226134D01*
X153546829Y-103231041D01*
X153546825Y-103231045D01*
X153439186Y-103350591D01*
X153423460Y-103368056D01*
X153381444Y-103440829D01*
X153340058Y-103512513D01*
X153327973Y-103533444D01*
X153268958Y-103715072D01*
X153268268Y-103721633D01*
X153268268Y-103721635D01*
X153263813Y-103764020D01*
X153248996Y-103905000D01*
X152224665Y-103905000D01*
X152118300Y-103827721D01*
X152104594Y-103817763D01*
X152104593Y-103817762D01*
X152099252Y-103813882D01*
X152093224Y-103811198D01*
X152093222Y-103811197D01*
X151930819Y-103738891D01*
X151930818Y-103738891D01*
X151924788Y-103736206D01*
X151825361Y-103715072D01*
X151744444Y-103697872D01*
X151744439Y-103697872D01*
X151737987Y-103696500D01*
X151547013Y-103696500D01*
X151540561Y-103697872D01*
X151540556Y-103697872D01*
X151459639Y-103715072D01*
X151360212Y-103736206D01*
X151354182Y-103738891D01*
X151354181Y-103738891D01*
X151191778Y-103811197D01*
X151191776Y-103811198D01*
X151185748Y-103813882D01*
X151180407Y-103817762D01*
X151180406Y-103817763D01*
X151166700Y-103827721D01*
X151031247Y-103926134D01*
X151026826Y-103931044D01*
X151026825Y-103931045D01*
X150922549Y-104046856D01*
X150903460Y-104068056D01*
X150867830Y-104129769D01*
X150816964Y-104217872D01*
X150807973Y-104233444D01*
X150748958Y-104415072D01*
X150748268Y-104421633D01*
X150748268Y-104421635D01*
X150746101Y-104442251D01*
X150728996Y-104605000D01*
X150043627Y-104605000D01*
X150045039Y-104591565D01*
X150045729Y-104585000D01*
X150045039Y-104578435D01*
X150027555Y-104412089D01*
X150027555Y-104412088D01*
X150026865Y-104405525D01*
X150021290Y-104388365D01*
X149973141Y-104240178D01*
X149971099Y-104233893D01*
X149880867Y-104077607D01*
X149868089Y-104063415D01*
X149764535Y-103948407D01*
X149764534Y-103948406D01*
X149760113Y-103943496D01*
X149736217Y-103926134D01*
X149619457Y-103841303D01*
X149619456Y-103841302D01*
X149614115Y-103837422D01*
X149608087Y-103834738D01*
X149608085Y-103834737D01*
X149455283Y-103766705D01*
X149455281Y-103766705D01*
X149449252Y-103764020D01*
X149360992Y-103745260D01*
X149279189Y-103727872D01*
X149279185Y-103727872D01*
X149272732Y-103726500D01*
X149092268Y-103726500D01*
X149085815Y-103727872D01*
X149085811Y-103727872D01*
X149004008Y-103745260D01*
X148915748Y-103764020D01*
X148909719Y-103766704D01*
X148909717Y-103766705D01*
X148756916Y-103834737D01*
X148756914Y-103834738D01*
X148750886Y-103837422D01*
X148745545Y-103841302D01*
X148745544Y-103841303D01*
X148610231Y-103939613D01*
X148610229Y-103939615D01*
X148604887Y-103943496D01*
X148600466Y-103948406D01*
X148600465Y-103948407D01*
X148496912Y-104063415D01*
X148484133Y-104077607D01*
X148393901Y-104233893D01*
X148391859Y-104240178D01*
X148343711Y-104388365D01*
X148338135Y-104405525D01*
X148337445Y-104412088D01*
X148337445Y-104412089D01*
X148319961Y-104578435D01*
X148319271Y-104585000D01*
X130770500Y-104585000D01*
X130770500Y-103152064D01*
X131270207Y-103152064D01*
X131299325Y-103344599D01*
X131301528Y-103350585D01*
X131301529Y-103350591D01*
X131364360Y-103521360D01*
X131364362Y-103521365D01*
X131366563Y-103527346D01*
X131377430Y-103544873D01*
X131457353Y-103673774D01*
X131469174Y-103692840D01*
X131473555Y-103697473D01*
X131473556Y-103697474D01*
X131541581Y-103769409D01*
X131602966Y-103834322D01*
X131762475Y-103946011D01*
X131768338Y-103948548D01*
X131935325Y-104020810D01*
X131935329Y-104020811D01*
X131941184Y-104023345D01*
X131947431Y-104024650D01*
X131947434Y-104024651D01*
X132127057Y-104062176D01*
X132127062Y-104062177D01*
X132131793Y-104063165D01*
X132138185Y-104063500D01*
X132281163Y-104063500D01*
X132350451Y-104056462D01*
X132419878Y-104049410D01*
X132419879Y-104049410D01*
X132426227Y-104048765D01*
X132512800Y-104021635D01*
X132605951Y-103992444D01*
X132605956Y-103992442D01*
X132612041Y-103990535D01*
X132703906Y-103939613D01*
X132776771Y-103899223D01*
X132776774Y-103899221D01*
X132782350Y-103896130D01*
X132787191Y-103891981D01*
X132787195Y-103891978D01*
X132925355Y-103773560D01*
X132930198Y-103769409D01*
X132935443Y-103762648D01*
X133045631Y-103620594D01*
X133049546Y-103615547D01*
X133061730Y-103590787D01*
X133132700Y-103446556D01*
X133135518Y-103440829D01*
X133147064Y-103396503D01*
X133182992Y-103258575D01*
X133182992Y-103258572D01*
X133184602Y-103252393D01*
X133194793Y-103057936D01*
X133165675Y-102865401D01*
X133163472Y-102859415D01*
X133163471Y-102859409D01*
X133100640Y-102688640D01*
X133100638Y-102688635D01*
X133098437Y-102682654D01*
X132995826Y-102517160D01*
X132938092Y-102456107D01*
X132866419Y-102380315D01*
X132862034Y-102375678D01*
X132702525Y-102263989D01*
X132619604Y-102228106D01*
X132529675Y-102189190D01*
X132529671Y-102189189D01*
X132523816Y-102186655D01*
X132517569Y-102185350D01*
X132517566Y-102185349D01*
X132337943Y-102147824D01*
X132337938Y-102147823D01*
X132333207Y-102146835D01*
X132326815Y-102146500D01*
X132183837Y-102146500D01*
X132114549Y-102153538D01*
X132045122Y-102160590D01*
X132045121Y-102160590D01*
X132038773Y-102161235D01*
X131982439Y-102178889D01*
X131859049Y-102217556D01*
X131859044Y-102217558D01*
X131852959Y-102219465D01*
X131815708Y-102240114D01*
X131688229Y-102310777D01*
X131688226Y-102310779D01*
X131682650Y-102313870D01*
X131677809Y-102318019D01*
X131677805Y-102318022D01*
X131565964Y-102413882D01*
X131534802Y-102440591D01*
X131530891Y-102445633D01*
X131530890Y-102445634D01*
X131518327Y-102461830D01*
X131415454Y-102594453D01*
X131412638Y-102600176D01*
X131412636Y-102600179D01*
X131338725Y-102750387D01*
X131329482Y-102769171D01*
X131327873Y-102775349D01*
X131327872Y-102775351D01*
X131289336Y-102923295D01*
X131280398Y-102957607D01*
X131276351Y-103034834D01*
X131271017Y-103136611D01*
X131270207Y-103152064D01*
X130770500Y-103152064D01*
X130770500Y-102105000D01*
X147919271Y-102105000D01*
X147938135Y-102284475D01*
X147993901Y-102456107D01*
X148084133Y-102612393D01*
X148204887Y-102746504D01*
X148210229Y-102750385D01*
X148210231Y-102750387D01*
X148316672Y-102827721D01*
X148350885Y-102852578D01*
X148356913Y-102855262D01*
X148356915Y-102855263D01*
X148393867Y-102871715D01*
X148515748Y-102925980D01*
X148604008Y-102944740D01*
X148685811Y-102962128D01*
X148685815Y-102962128D01*
X148692268Y-102963500D01*
X148872732Y-102963500D01*
X148879185Y-102962128D01*
X148879189Y-102962128D01*
X148960992Y-102944740D01*
X149049252Y-102925980D01*
X149171133Y-102871715D01*
X149208085Y-102855263D01*
X149208087Y-102855262D01*
X149214115Y-102852578D01*
X149248328Y-102827721D01*
X149354769Y-102750387D01*
X149354771Y-102750385D01*
X149360113Y-102746504D01*
X149480867Y-102612393D01*
X149571099Y-102456107D01*
X149626865Y-102284475D01*
X149645729Y-102105000D01*
X149626865Y-101925525D01*
X149571099Y-101753893D01*
X149480867Y-101597607D01*
X149360113Y-101463496D01*
X149328812Y-101440754D01*
X149219457Y-101361303D01*
X149219456Y-101361302D01*
X149214115Y-101357422D01*
X149208087Y-101354738D01*
X149208085Y-101354737D01*
X149055283Y-101286705D01*
X149055281Y-101286705D01*
X149049252Y-101284020D01*
X148960992Y-101265260D01*
X148912723Y-101255000D01*
X161949271Y-101255000D01*
X161968135Y-101434475D01*
X162023901Y-101606107D01*
X162114133Y-101762393D01*
X162118551Y-101767300D01*
X162118552Y-101767301D01*
X162164335Y-101818148D01*
X162234887Y-101896504D01*
X162240229Y-101900385D01*
X162240231Y-101900387D01*
X162276199Y-101926519D01*
X162380885Y-102002578D01*
X162386913Y-102005262D01*
X162386915Y-102005263D01*
X162528815Y-102068441D01*
X162545748Y-102075980D01*
X162634008Y-102094740D01*
X162715811Y-102112128D01*
X162715815Y-102112128D01*
X162722268Y-102113500D01*
X162902732Y-102113500D01*
X162909185Y-102112128D01*
X162909189Y-102112128D01*
X162990992Y-102094740D01*
X163079252Y-102075980D01*
X163096185Y-102068441D01*
X163238085Y-102005263D01*
X163238087Y-102005262D01*
X163244115Y-102002578D01*
X163348801Y-101926519D01*
X163384769Y-101900387D01*
X163384771Y-101900385D01*
X163390113Y-101896504D01*
X163460665Y-101818148D01*
X163506448Y-101767301D01*
X163506449Y-101767300D01*
X163510867Y-101762393D01*
X163601099Y-101606107D01*
X163656865Y-101434475D01*
X163675729Y-101255000D01*
X163656865Y-101075525D01*
X163601099Y-100903893D01*
X163584514Y-100875166D01*
X163520543Y-100764366D01*
X163510867Y-100747607D01*
X163453475Y-100683866D01*
X163394535Y-100618407D01*
X163394534Y-100618406D01*
X163390113Y-100613496D01*
X163371293Y-100599822D01*
X163249457Y-100511303D01*
X163249456Y-100511302D01*
X163244115Y-100507422D01*
X163238087Y-100504738D01*
X163238085Y-100504737D01*
X163085283Y-100436705D01*
X163085281Y-100436705D01*
X163079252Y-100434020D01*
X162990992Y-100415260D01*
X162909189Y-100397872D01*
X162909185Y-100397872D01*
X162902732Y-100396500D01*
X162722268Y-100396500D01*
X162715815Y-100397872D01*
X162715811Y-100397872D01*
X162634008Y-100415260D01*
X162545748Y-100434020D01*
X162539719Y-100436704D01*
X162539717Y-100436705D01*
X162386916Y-100504737D01*
X162386914Y-100504738D01*
X162380886Y-100507422D01*
X162375545Y-100511302D01*
X162375544Y-100511303D01*
X162240231Y-100609613D01*
X162240229Y-100609615D01*
X162234887Y-100613496D01*
X162230466Y-100618406D01*
X162230465Y-100618407D01*
X162171526Y-100683866D01*
X162114133Y-100747607D01*
X162104457Y-100764366D01*
X162040487Y-100875166D01*
X162023901Y-100903893D01*
X161968135Y-101075525D01*
X161949271Y-101255000D01*
X148912723Y-101255000D01*
X148879189Y-101247872D01*
X148879185Y-101247872D01*
X148872732Y-101246500D01*
X148692268Y-101246500D01*
X148685815Y-101247872D01*
X148685811Y-101247872D01*
X148604008Y-101265260D01*
X148515748Y-101284020D01*
X148509719Y-101286704D01*
X148509717Y-101286705D01*
X148356916Y-101354737D01*
X148356914Y-101354738D01*
X148350886Y-101357422D01*
X148345545Y-101361302D01*
X148345544Y-101361303D01*
X148210231Y-101459613D01*
X148210229Y-101459615D01*
X148204887Y-101463496D01*
X148084133Y-101597607D01*
X147993901Y-101753893D01*
X147938135Y-101925525D01*
X147919271Y-102105000D01*
X130770500Y-102105000D01*
X130770500Y-100152064D01*
X131270207Y-100152064D01*
X131299325Y-100344599D01*
X131301528Y-100350585D01*
X131301529Y-100350591D01*
X131364360Y-100521360D01*
X131364362Y-100521365D01*
X131366563Y-100527346D01*
X131469174Y-100692840D01*
X131473555Y-100697473D01*
X131473556Y-100697474D01*
X131569378Y-100798803D01*
X131602966Y-100834322D01*
X131762475Y-100946011D01*
X131768338Y-100948548D01*
X131935325Y-101020810D01*
X131935329Y-101020811D01*
X131941184Y-101023345D01*
X131947431Y-101024650D01*
X131947434Y-101024651D01*
X132127057Y-101062176D01*
X132127062Y-101062177D01*
X132131793Y-101063165D01*
X132138185Y-101063500D01*
X132281163Y-101063500D01*
X132350451Y-101056462D01*
X132419878Y-101049410D01*
X132419879Y-101049410D01*
X132426227Y-101048765D01*
X132507343Y-101023345D01*
X132605951Y-100992444D01*
X132605956Y-100992442D01*
X132612041Y-100990535D01*
X132698975Y-100942346D01*
X132776771Y-100899223D01*
X132776774Y-100899221D01*
X132782350Y-100896130D01*
X132787191Y-100891981D01*
X132787195Y-100891978D01*
X132925355Y-100773560D01*
X132930198Y-100769409D01*
X132947110Y-100747607D01*
X133005455Y-100672389D01*
X133049546Y-100615547D01*
X133054192Y-100606107D01*
X133132700Y-100446556D01*
X133135518Y-100440829D01*
X133138883Y-100427911D01*
X133182992Y-100258575D01*
X133182992Y-100258572D01*
X133183923Y-100255000D01*
X141899271Y-100255000D01*
X141918135Y-100434475D01*
X141920175Y-100440753D01*
X141920175Y-100440754D01*
X141922060Y-100446556D01*
X141973901Y-100606107D01*
X142064133Y-100762393D01*
X142068551Y-100767300D01*
X142068552Y-100767301D01*
X142094499Y-100796118D01*
X142184887Y-100896504D01*
X142190229Y-100900385D01*
X142190231Y-100900387D01*
X142325543Y-100998697D01*
X142330885Y-101002578D01*
X142336913Y-101005262D01*
X142336915Y-101005263D01*
X142480623Y-101069246D01*
X142495748Y-101075980D01*
X142584008Y-101094740D01*
X142665811Y-101112128D01*
X142665815Y-101112128D01*
X142672268Y-101113500D01*
X142852732Y-101113500D01*
X142859185Y-101112128D01*
X142859189Y-101112128D01*
X142940992Y-101094740D01*
X143029252Y-101075980D01*
X143044377Y-101069246D01*
X143188085Y-101005263D01*
X143188087Y-101005262D01*
X143194115Y-101002578D01*
X143199457Y-100998697D01*
X143334769Y-100900387D01*
X143334771Y-100900385D01*
X143340113Y-100896504D01*
X143430501Y-100796118D01*
X143456448Y-100767301D01*
X143456449Y-100767300D01*
X143460867Y-100762393D01*
X143551099Y-100606107D01*
X143602940Y-100446556D01*
X143604825Y-100440754D01*
X143604825Y-100440753D01*
X143606865Y-100434475D01*
X143625729Y-100255000D01*
X143606865Y-100075525D01*
X143602796Y-100063000D01*
X143566543Y-99951425D01*
X143551099Y-99903893D01*
X143460867Y-99747607D01*
X143340113Y-99613496D01*
X143334264Y-99609246D01*
X143199457Y-99511303D01*
X143199456Y-99511302D01*
X143194115Y-99507422D01*
X143188087Y-99504738D01*
X143188085Y-99504737D01*
X143035283Y-99436705D01*
X143035281Y-99436705D01*
X143029252Y-99434020D01*
X142940992Y-99415260D01*
X142859189Y-99397872D01*
X142859185Y-99397872D01*
X142852732Y-99396500D01*
X142672268Y-99396500D01*
X142665815Y-99397872D01*
X142665811Y-99397872D01*
X142584008Y-99415260D01*
X142495748Y-99434020D01*
X142489719Y-99436704D01*
X142489717Y-99436705D01*
X142336916Y-99504737D01*
X142336914Y-99504738D01*
X142330886Y-99507422D01*
X142325545Y-99511302D01*
X142325544Y-99511303D01*
X142190231Y-99609613D01*
X142190229Y-99609615D01*
X142184887Y-99613496D01*
X142064133Y-99747607D01*
X141973901Y-99903893D01*
X141958457Y-99951425D01*
X141922205Y-100063000D01*
X141918135Y-100075525D01*
X141899271Y-100255000D01*
X133183923Y-100255000D01*
X133184602Y-100252393D01*
X133190502Y-100139822D01*
X133194459Y-100064317D01*
X133194459Y-100064313D01*
X133194793Y-100057936D01*
X133165675Y-99865401D01*
X133163472Y-99859415D01*
X133163471Y-99859409D01*
X133100640Y-99688640D01*
X133100638Y-99688635D01*
X133098437Y-99682654D01*
X132995826Y-99517160D01*
X132915908Y-99432648D01*
X132866419Y-99380315D01*
X132862034Y-99375678D01*
X132702525Y-99263989D01*
X132654513Y-99243212D01*
X132529675Y-99189190D01*
X132529671Y-99189189D01*
X132523816Y-99186655D01*
X132517569Y-99185350D01*
X132517566Y-99185349D01*
X132369899Y-99154500D01*
X144148996Y-99154500D01*
X144149686Y-99161065D01*
X144166183Y-99318022D01*
X144168958Y-99344428D01*
X144227973Y-99526056D01*
X144323460Y-99691444D01*
X144327878Y-99696351D01*
X144327879Y-99696352D01*
X144399010Y-99775351D01*
X144451247Y-99833366D01*
X144605748Y-99945618D01*
X144611776Y-99948302D01*
X144611778Y-99948303D01*
X144753868Y-100011565D01*
X144780212Y-100023294D01*
X144873613Y-100043147D01*
X144960556Y-100061628D01*
X144960561Y-100061628D01*
X144967013Y-100063000D01*
X145157987Y-100063000D01*
X145164439Y-100061628D01*
X145164444Y-100061628D01*
X145251388Y-100043147D01*
X145344788Y-100023294D01*
X145371132Y-100011565D01*
X145513222Y-99948303D01*
X145513224Y-99948302D01*
X145519252Y-99945618D01*
X145673753Y-99833366D01*
X145725990Y-99775351D01*
X145797121Y-99696352D01*
X145797122Y-99696351D01*
X145801540Y-99691444D01*
X145897027Y-99526056D01*
X145956042Y-99344428D01*
X145958818Y-99318022D01*
X145975314Y-99161065D01*
X145976004Y-99154500D01*
X145956042Y-98964572D01*
X145943181Y-98924989D01*
X153625620Y-98924989D01*
X153626310Y-98931554D01*
X153643791Y-99097872D01*
X153645582Y-99114917D01*
X153704597Y-99296545D01*
X153707900Y-99302267D01*
X153707901Y-99302268D01*
X153716997Y-99318022D01*
X153800084Y-99461933D01*
X153804502Y-99466840D01*
X153804503Y-99466841D01*
X153914861Y-99589406D01*
X153927871Y-99603855D01*
X154082372Y-99716107D01*
X154088400Y-99718791D01*
X154088402Y-99718792D01*
X154244824Y-99788435D01*
X154256836Y-99793783D01*
X154327457Y-99808794D01*
X154437180Y-99832117D01*
X154437185Y-99832117D01*
X154443637Y-99833489D01*
X154634611Y-99833489D01*
X154641063Y-99832117D01*
X154641068Y-99832117D01*
X154750791Y-99808794D01*
X154815686Y-99795000D01*
X168019271Y-99795000D01*
X168019961Y-99801565D01*
X168037033Y-99963986D01*
X168038135Y-99974475D01*
X168093901Y-100146107D01*
X168097204Y-100151829D01*
X168097205Y-100151830D01*
X168129189Y-100207227D01*
X168184133Y-100302393D01*
X168188551Y-100307300D01*
X168188552Y-100307301D01*
X168297150Y-100427911D01*
X168304887Y-100436504D01*
X168310229Y-100440385D01*
X168310231Y-100440387D01*
X168442142Y-100536226D01*
X168450885Y-100542578D01*
X168456913Y-100545262D01*
X168456915Y-100545263D01*
X168606427Y-100611830D01*
X168615748Y-100615980D01*
X168704008Y-100634740D01*
X168785811Y-100652128D01*
X168785815Y-100652128D01*
X168792268Y-100653500D01*
X168972732Y-100653500D01*
X168979185Y-100652128D01*
X168979189Y-100652128D01*
X169060992Y-100634740D01*
X169149252Y-100615980D01*
X169158573Y-100611830D01*
X169308085Y-100545263D01*
X169308087Y-100545262D01*
X169314115Y-100542578D01*
X169322858Y-100536226D01*
X169454769Y-100440387D01*
X169454771Y-100440385D01*
X169460113Y-100436504D01*
X169467850Y-100427911D01*
X169576448Y-100307301D01*
X169576449Y-100307300D01*
X169580867Y-100302393D01*
X169635811Y-100207227D01*
X169667795Y-100151830D01*
X169667796Y-100151829D01*
X169671099Y-100146107D01*
X169716947Y-100005000D01*
X172748996Y-100005000D01*
X172768958Y-100194928D01*
X172827973Y-100376556D01*
X172923460Y-100541944D01*
X172927878Y-100546851D01*
X172927879Y-100546852D01*
X172994277Y-100620594D01*
X173051247Y-100683866D01*
X173205748Y-100796118D01*
X173211776Y-100798802D01*
X173211778Y-100798803D01*
X173281141Y-100829685D01*
X173380212Y-100873794D01*
X173463949Y-100891593D01*
X173560556Y-100912128D01*
X173560561Y-100912128D01*
X173567013Y-100913500D01*
X173757987Y-100913500D01*
X173764439Y-100912128D01*
X173764444Y-100912128D01*
X173861051Y-100891593D01*
X173944788Y-100873794D01*
X174043859Y-100829685D01*
X174113222Y-100798803D01*
X174113224Y-100798802D01*
X174119252Y-100796118D01*
X174273753Y-100683866D01*
X174330723Y-100620594D01*
X174397121Y-100546852D01*
X174397122Y-100546851D01*
X174401540Y-100541944D01*
X174497027Y-100376556D01*
X174556042Y-100194928D01*
X174576004Y-100005000D01*
X174557965Y-99833366D01*
X174556732Y-99821635D01*
X174556732Y-99821633D01*
X174556042Y-99815072D01*
X174497027Y-99633444D01*
X174488346Y-99618407D01*
X174459814Y-99568990D01*
X174401540Y-99468056D01*
X174390879Y-99456215D01*
X174278175Y-99331045D01*
X174278174Y-99331044D01*
X174273753Y-99326134D01*
X174174657Y-99254136D01*
X174124594Y-99217763D01*
X174124593Y-99217762D01*
X174119252Y-99213882D01*
X174113224Y-99211198D01*
X174113222Y-99211197D01*
X173950819Y-99138891D01*
X173950818Y-99138891D01*
X173944788Y-99136206D01*
X173844632Y-99114917D01*
X173764444Y-99097872D01*
X173764439Y-99097872D01*
X173757987Y-99096500D01*
X173567013Y-99096500D01*
X173560561Y-99097872D01*
X173560556Y-99097872D01*
X173480368Y-99114917D01*
X173380212Y-99136206D01*
X173374182Y-99138891D01*
X173374181Y-99138891D01*
X173211778Y-99211197D01*
X173211776Y-99211198D01*
X173205748Y-99213882D01*
X173200407Y-99217762D01*
X173200406Y-99217763D01*
X173150343Y-99254136D01*
X173051247Y-99326134D01*
X173046826Y-99331044D01*
X173046825Y-99331045D01*
X172934122Y-99456215D01*
X172923460Y-99468056D01*
X172865186Y-99568990D01*
X172836655Y-99618407D01*
X172827973Y-99633444D01*
X172768958Y-99815072D01*
X172768268Y-99821633D01*
X172768268Y-99821635D01*
X172767035Y-99833366D01*
X172748996Y-100005000D01*
X169716947Y-100005000D01*
X169726865Y-99974475D01*
X169727968Y-99963986D01*
X169745039Y-99801565D01*
X169745729Y-99795000D01*
X169737029Y-99712226D01*
X169727555Y-99622089D01*
X169727555Y-99622088D01*
X169726865Y-99615525D01*
X169671099Y-99443893D01*
X169580867Y-99287607D01*
X169489970Y-99186655D01*
X169464535Y-99158407D01*
X169464534Y-99158406D01*
X169460113Y-99153496D01*
X169452307Y-99147824D01*
X169319457Y-99051303D01*
X169319456Y-99051302D01*
X169314115Y-99047422D01*
X169308087Y-99044738D01*
X169308085Y-99044737D01*
X169155283Y-98976705D01*
X169155281Y-98976705D01*
X169149252Y-98974020D01*
X169060992Y-98955260D01*
X168979189Y-98937872D01*
X168979185Y-98937872D01*
X168972732Y-98936500D01*
X168792268Y-98936500D01*
X168785815Y-98937872D01*
X168785811Y-98937872D01*
X168704008Y-98955260D01*
X168615748Y-98974020D01*
X168609719Y-98976704D01*
X168609717Y-98976705D01*
X168456916Y-99044737D01*
X168456914Y-99044738D01*
X168450886Y-99047422D01*
X168445545Y-99051302D01*
X168445544Y-99051303D01*
X168310231Y-99149613D01*
X168310229Y-99149615D01*
X168304887Y-99153496D01*
X168300466Y-99158406D01*
X168300465Y-99158407D01*
X168275031Y-99186655D01*
X168184133Y-99287607D01*
X168093901Y-99443893D01*
X168038135Y-99615525D01*
X168037445Y-99622088D01*
X168037445Y-99622089D01*
X168027971Y-99712226D01*
X168019271Y-99795000D01*
X154815686Y-99795000D01*
X154821412Y-99793783D01*
X154833424Y-99788435D01*
X154989846Y-99718792D01*
X154989848Y-99718791D01*
X154995876Y-99716107D01*
X155150377Y-99603855D01*
X155163387Y-99589406D01*
X155273745Y-99466841D01*
X155273746Y-99466840D01*
X155278164Y-99461933D01*
X155361251Y-99318022D01*
X155370347Y-99302268D01*
X155370348Y-99302267D01*
X155373651Y-99296545D01*
X155432666Y-99114917D01*
X155434458Y-99097872D01*
X155451938Y-98931554D01*
X155452628Y-98924989D01*
X155432666Y-98735061D01*
X155373651Y-98553433D01*
X155321433Y-98462989D01*
X155304695Y-98393994D01*
X155321433Y-98336989D01*
X155370347Y-98252268D01*
X155370348Y-98252267D01*
X155373651Y-98246545D01*
X155432666Y-98064917D01*
X155442117Y-97975000D01*
X164379271Y-97975000D01*
X164398135Y-98154475D01*
X164453901Y-98326107D01*
X164544133Y-98482393D01*
X164548551Y-98487300D01*
X164548552Y-98487301D01*
X164608098Y-98553433D01*
X164664887Y-98616504D01*
X164810885Y-98722578D01*
X164816913Y-98725262D01*
X164816915Y-98725263D01*
X164960585Y-98789229D01*
X164975748Y-98795980D01*
X165064008Y-98814740D01*
X165145811Y-98832128D01*
X165145815Y-98832128D01*
X165152268Y-98833500D01*
X165332732Y-98833500D01*
X165339185Y-98832128D01*
X165339189Y-98832128D01*
X165420992Y-98814740D01*
X165509252Y-98795980D01*
X165524415Y-98789229D01*
X165668085Y-98725263D01*
X165668087Y-98725262D01*
X165674115Y-98722578D01*
X165820113Y-98616504D01*
X165876902Y-98553433D01*
X165936448Y-98487301D01*
X165936449Y-98487300D01*
X165940867Y-98482393D01*
X166031099Y-98326107D01*
X166086865Y-98154475D01*
X166105729Y-97975000D01*
X166086865Y-97795525D01*
X166031099Y-97623893D01*
X166026531Y-97615980D01*
X165944168Y-97473325D01*
X165940867Y-97467607D01*
X165829358Y-97343763D01*
X165824535Y-97338407D01*
X165824534Y-97338406D01*
X165820113Y-97333496D01*
X165777304Y-97302393D01*
X165679457Y-97231303D01*
X165679456Y-97231302D01*
X165674115Y-97227422D01*
X165668087Y-97224738D01*
X165668085Y-97224737D01*
X165515283Y-97156705D01*
X165515281Y-97156705D01*
X165509252Y-97154020D01*
X165420992Y-97135260D01*
X165339189Y-97117872D01*
X165339185Y-97117872D01*
X165332732Y-97116500D01*
X165152268Y-97116500D01*
X165145815Y-97117872D01*
X165145811Y-97117872D01*
X165064008Y-97135260D01*
X164975748Y-97154020D01*
X164969719Y-97156704D01*
X164969717Y-97156705D01*
X164816916Y-97224737D01*
X164816914Y-97224738D01*
X164810886Y-97227422D01*
X164805545Y-97231302D01*
X164805544Y-97231303D01*
X164670231Y-97329613D01*
X164670229Y-97329615D01*
X164664887Y-97333496D01*
X164660466Y-97338406D01*
X164660465Y-97338407D01*
X164655643Y-97343763D01*
X164544133Y-97467607D01*
X164540832Y-97473325D01*
X164458470Y-97615980D01*
X164453901Y-97623893D01*
X164398135Y-97795525D01*
X164379271Y-97975000D01*
X155442117Y-97975000D01*
X155452628Y-97874989D01*
X155432666Y-97685061D01*
X155373651Y-97503433D01*
X155278164Y-97338045D01*
X155150377Y-97196123D01*
X154995876Y-97083871D01*
X154989848Y-97081187D01*
X154989846Y-97081186D01*
X154827443Y-97008880D01*
X154827442Y-97008880D01*
X154821412Y-97006195D01*
X154728012Y-96986342D01*
X154641068Y-96967861D01*
X154641063Y-96967861D01*
X154634611Y-96966489D01*
X154443637Y-96966489D01*
X154437185Y-96967861D01*
X154437180Y-96967861D01*
X154350236Y-96986342D01*
X154256836Y-97006195D01*
X154250806Y-97008880D01*
X154250805Y-97008880D01*
X154088402Y-97081186D01*
X154088400Y-97081187D01*
X154082372Y-97083871D01*
X153927871Y-97196123D01*
X153800084Y-97338045D01*
X153704597Y-97503433D01*
X153645582Y-97685061D01*
X153625620Y-97874989D01*
X153645582Y-98064917D01*
X153704597Y-98246545D01*
X153707900Y-98252267D01*
X153707901Y-98252268D01*
X153756815Y-98336989D01*
X153773553Y-98405984D01*
X153756815Y-98462989D01*
X153704597Y-98553433D01*
X153645582Y-98735061D01*
X153625620Y-98924989D01*
X145943181Y-98924989D01*
X145897027Y-98782944D01*
X145801540Y-98617556D01*
X145749463Y-98559718D01*
X145678175Y-98480545D01*
X145678174Y-98480544D01*
X145673753Y-98475634D01*
X145519252Y-98363382D01*
X145513224Y-98360698D01*
X145513222Y-98360697D01*
X145350819Y-98288391D01*
X145350818Y-98288391D01*
X145344788Y-98285706D01*
X145251388Y-98265853D01*
X145164444Y-98247372D01*
X145164439Y-98247372D01*
X145157987Y-98246000D01*
X144967013Y-98246000D01*
X144960561Y-98247372D01*
X144960556Y-98247372D01*
X144873612Y-98265853D01*
X144780212Y-98285706D01*
X144774182Y-98288391D01*
X144774181Y-98288391D01*
X144611778Y-98360697D01*
X144611776Y-98360698D01*
X144605748Y-98363382D01*
X144451247Y-98475634D01*
X144446826Y-98480544D01*
X144446825Y-98480545D01*
X144375538Y-98559718D01*
X144323460Y-98617556D01*
X144227973Y-98782944D01*
X144168958Y-98964572D01*
X144148996Y-99154500D01*
X132369899Y-99154500D01*
X132337943Y-99147824D01*
X132337938Y-99147823D01*
X132333207Y-99146835D01*
X132326815Y-99146500D01*
X132183837Y-99146500D01*
X132169710Y-99147935D01*
X132045122Y-99160590D01*
X132045121Y-99160590D01*
X132038773Y-99161235D01*
X131982439Y-99178889D01*
X131859049Y-99217556D01*
X131859044Y-99217558D01*
X131852959Y-99219465D01*
X131777213Y-99261452D01*
X131688229Y-99310777D01*
X131688226Y-99310779D01*
X131682650Y-99313870D01*
X131677809Y-99318019D01*
X131677805Y-99318022D01*
X131539645Y-99436440D01*
X131534802Y-99440591D01*
X131530891Y-99445633D01*
X131530890Y-99445634D01*
X131485045Y-99504737D01*
X131415454Y-99594453D01*
X131412638Y-99600176D01*
X131412636Y-99600179D01*
X131342508Y-99742699D01*
X131329482Y-99769171D01*
X131327873Y-99775349D01*
X131327872Y-99775351D01*
X131282822Y-99948303D01*
X131280398Y-99957607D01*
X131280064Y-99963986D01*
X131270849Y-100139822D01*
X131270207Y-100152064D01*
X130770500Y-100152064D01*
X130770500Y-96795000D01*
X140319271Y-96795000D01*
X140338135Y-96974475D01*
X140340175Y-96980753D01*
X140340175Y-96980754D01*
X140348441Y-97006195D01*
X140393901Y-97146107D01*
X140397204Y-97151829D01*
X140397205Y-97151830D01*
X140400020Y-97156705D01*
X140484133Y-97302393D01*
X140604887Y-97436504D01*
X140610229Y-97440385D01*
X140610231Y-97440387D01*
X140705657Y-97509718D01*
X140750885Y-97542578D01*
X140756913Y-97545262D01*
X140756915Y-97545263D01*
X140909717Y-97613295D01*
X140915748Y-97615980D01*
X141004008Y-97634740D01*
X141085811Y-97652128D01*
X141085815Y-97652128D01*
X141092268Y-97653500D01*
X141272732Y-97653500D01*
X141279185Y-97652128D01*
X141279189Y-97652128D01*
X141360992Y-97634740D01*
X141449252Y-97615980D01*
X141455283Y-97613295D01*
X141608085Y-97545263D01*
X141608087Y-97545262D01*
X141614115Y-97542578D01*
X141659343Y-97509718D01*
X141754769Y-97440387D01*
X141754771Y-97440385D01*
X141760113Y-97436504D01*
X141880867Y-97302393D01*
X141964980Y-97156705D01*
X141967795Y-97151830D01*
X141967796Y-97151829D01*
X141971099Y-97146107D01*
X142016559Y-97006195D01*
X142024825Y-96980754D01*
X142024825Y-96980753D01*
X142026865Y-96974475D01*
X142045729Y-96795000D01*
X142026865Y-96615525D01*
X141971099Y-96443893D01*
X141880867Y-96287607D01*
X141777169Y-96172438D01*
X141764535Y-96158407D01*
X141764534Y-96158406D01*
X141760113Y-96153496D01*
X141614115Y-96047422D01*
X141608087Y-96044738D01*
X141608085Y-96044737D01*
X141455283Y-95976705D01*
X141455281Y-95976705D01*
X141449252Y-95974020D01*
X141360992Y-95955260D01*
X141279189Y-95937872D01*
X141279185Y-95937872D01*
X141272732Y-95936500D01*
X141092268Y-95936500D01*
X141085815Y-95937872D01*
X141085811Y-95937872D01*
X141004008Y-95955260D01*
X140915748Y-95974020D01*
X140909719Y-95976704D01*
X140909717Y-95976705D01*
X140756916Y-96044737D01*
X140756914Y-96044738D01*
X140750886Y-96047422D01*
X140745545Y-96051302D01*
X140745544Y-96051303D01*
X140610231Y-96149613D01*
X140610229Y-96149615D01*
X140604887Y-96153496D01*
X140600466Y-96158406D01*
X140600465Y-96158407D01*
X140587832Y-96172438D01*
X140484133Y-96287607D01*
X140393901Y-96443893D01*
X140338135Y-96615525D01*
X140319271Y-96795000D01*
X130770500Y-96795000D01*
X130770500Y-94855000D01*
X146169271Y-94855000D01*
X146188135Y-95034475D01*
X146243901Y-95206107D01*
X146247204Y-95211829D01*
X146247205Y-95211830D01*
X146266131Y-95244610D01*
X146334133Y-95362393D01*
X146338551Y-95367300D01*
X146338552Y-95367301D01*
X146427403Y-95465980D01*
X146454887Y-95496504D01*
X146460229Y-95500385D01*
X146460231Y-95500387D01*
X146464516Y-95503500D01*
X146600885Y-95602578D01*
X146606913Y-95605262D01*
X146606915Y-95605263D01*
X146619713Y-95610961D01*
X146765748Y-95675980D01*
X146854008Y-95694740D01*
X146935811Y-95712128D01*
X146935815Y-95712128D01*
X146942268Y-95713500D01*
X147122732Y-95713500D01*
X147129185Y-95712128D01*
X147129189Y-95712128D01*
X147210992Y-95694740D01*
X147299252Y-95675980D01*
X147445287Y-95610961D01*
X147458085Y-95605263D01*
X147458087Y-95605262D01*
X147464115Y-95602578D01*
X147600484Y-95503500D01*
X147604769Y-95500387D01*
X147604771Y-95500385D01*
X147610113Y-95496504D01*
X147637597Y-95465980D01*
X147726448Y-95367301D01*
X147726449Y-95367300D01*
X147730867Y-95362393D01*
X147798869Y-95244610D01*
X147817795Y-95211830D01*
X147817796Y-95211829D01*
X147821099Y-95206107D01*
X147876865Y-95034475D01*
X147895729Y-94855000D01*
X147880615Y-94711206D01*
X147877555Y-94682089D01*
X147877555Y-94682088D01*
X147876865Y-94675525D01*
X147866947Y-94645000D01*
X164169271Y-94645000D01*
X164188135Y-94824475D01*
X164243901Y-94996107D01*
X164334133Y-95152393D01*
X164338551Y-95157300D01*
X164338552Y-95157301D01*
X164418977Y-95246622D01*
X164454887Y-95286504D01*
X164460229Y-95290385D01*
X164460231Y-95290387D01*
X164516769Y-95331464D01*
X164600885Y-95392578D01*
X164606913Y-95395262D01*
X164606915Y-95395263D01*
X164759717Y-95463295D01*
X164765748Y-95465980D01*
X164854008Y-95484740D01*
X164935811Y-95502128D01*
X164935815Y-95502128D01*
X164942268Y-95503500D01*
X165122732Y-95503500D01*
X165129185Y-95502128D01*
X165129189Y-95502128D01*
X165210992Y-95484740D01*
X165299252Y-95465980D01*
X165305283Y-95463295D01*
X165458085Y-95395263D01*
X165458087Y-95395262D01*
X165464115Y-95392578D01*
X165548231Y-95331464D01*
X165604769Y-95290387D01*
X165604771Y-95290385D01*
X165610113Y-95286504D01*
X165646023Y-95246622D01*
X165726448Y-95157301D01*
X165726449Y-95157300D01*
X165730867Y-95152393D01*
X165821099Y-94996107D01*
X165876865Y-94824475D01*
X165895729Y-94645000D01*
X165882065Y-94515000D01*
X171518996Y-94515000D01*
X171519686Y-94521565D01*
X171536558Y-94682089D01*
X171538958Y-94704928D01*
X171597973Y-94886556D01*
X171693460Y-95051944D01*
X171793316Y-95162846D01*
X171824032Y-95226851D01*
X171815268Y-95297305D01*
X171793315Y-95331464D01*
X171696230Y-95439288D01*
X171600743Y-95604676D01*
X171541728Y-95786304D01*
X171521766Y-95976232D01*
X171541728Y-96166160D01*
X171600743Y-96347788D01*
X171696230Y-96513176D01*
X171700648Y-96518083D01*
X171700649Y-96518084D01*
X171819595Y-96650187D01*
X171824017Y-96655098D01*
X171978518Y-96767350D01*
X171984546Y-96770034D01*
X171984548Y-96770035D01*
X172146951Y-96842341D01*
X172152982Y-96845026D01*
X172246383Y-96864879D01*
X172333326Y-96883360D01*
X172333331Y-96883360D01*
X172339783Y-96884732D01*
X172530757Y-96884732D01*
X172537209Y-96883360D01*
X172537214Y-96883360D01*
X172624158Y-96864879D01*
X172717558Y-96845026D01*
X172723589Y-96842341D01*
X172885992Y-96770035D01*
X172885994Y-96770034D01*
X172892022Y-96767350D01*
X173046523Y-96655098D01*
X173050945Y-96650187D01*
X173169891Y-96518084D01*
X173169892Y-96518083D01*
X173174310Y-96513176D01*
X173269797Y-96347788D01*
X173328812Y-96166160D01*
X173348774Y-95976232D01*
X173328812Y-95786304D01*
X173269797Y-95604676D01*
X173174310Y-95439288D01*
X173074454Y-95328386D01*
X173043738Y-95264381D01*
X173052502Y-95193927D01*
X173074455Y-95159768D01*
X173167121Y-95056852D01*
X173167125Y-95056847D01*
X173171540Y-95051944D01*
X173267027Y-94886556D01*
X173326042Y-94704928D01*
X173328443Y-94682089D01*
X173345314Y-94521565D01*
X173346004Y-94515000D01*
X173329576Y-94358697D01*
X173326732Y-94331635D01*
X173326732Y-94331633D01*
X173326042Y-94325072D01*
X173267027Y-94143444D01*
X173260824Y-94132699D01*
X173182981Y-93997872D01*
X173171540Y-93978056D01*
X173102432Y-93901303D01*
X173048175Y-93841045D01*
X173048174Y-93841044D01*
X173043753Y-93836134D01*
X172889252Y-93723882D01*
X172883224Y-93721198D01*
X172883222Y-93721197D01*
X172720819Y-93648891D01*
X172720818Y-93648891D01*
X172714788Y-93646206D01*
X172598862Y-93621565D01*
X172534444Y-93607872D01*
X172534439Y-93607872D01*
X172527987Y-93606500D01*
X172337013Y-93606500D01*
X172330561Y-93607872D01*
X172330556Y-93607872D01*
X172266138Y-93621565D01*
X172150212Y-93646206D01*
X172144182Y-93648891D01*
X172144181Y-93648891D01*
X171981778Y-93721197D01*
X171981776Y-93721198D01*
X171975748Y-93723882D01*
X171821247Y-93836134D01*
X171816826Y-93841044D01*
X171816825Y-93841045D01*
X171762569Y-93901303D01*
X171693460Y-93978056D01*
X171682019Y-93997872D01*
X171604177Y-94132699D01*
X171597973Y-94143444D01*
X171538958Y-94325072D01*
X171538268Y-94331633D01*
X171538268Y-94331635D01*
X171535424Y-94358697D01*
X171518996Y-94515000D01*
X165882065Y-94515000D01*
X165876865Y-94465525D01*
X165821099Y-94293893D01*
X165730867Y-94137607D01*
X165721588Y-94127301D01*
X165614535Y-94008407D01*
X165614534Y-94008406D01*
X165610113Y-94003496D01*
X165602373Y-93997872D01*
X165469457Y-93901303D01*
X165469456Y-93901302D01*
X165464115Y-93897422D01*
X165458087Y-93894738D01*
X165458085Y-93894737D01*
X165305283Y-93826705D01*
X165305281Y-93826705D01*
X165299252Y-93824020D01*
X165189793Y-93800754D01*
X165129189Y-93787872D01*
X165129185Y-93787872D01*
X165122732Y-93786500D01*
X164942268Y-93786500D01*
X164935815Y-93787872D01*
X164935811Y-93787872D01*
X164875207Y-93800754D01*
X164765748Y-93824020D01*
X164759719Y-93826704D01*
X164759717Y-93826705D01*
X164606916Y-93894737D01*
X164606914Y-93894738D01*
X164600886Y-93897422D01*
X164595545Y-93901302D01*
X164595544Y-93901303D01*
X164460231Y-93999613D01*
X164460229Y-93999615D01*
X164454887Y-94003496D01*
X164450466Y-94008406D01*
X164450465Y-94008407D01*
X164343413Y-94127301D01*
X164334133Y-94137607D01*
X164243901Y-94293893D01*
X164188135Y-94465525D01*
X164169271Y-94645000D01*
X147866947Y-94645000D01*
X147821099Y-94503893D01*
X147802760Y-94472128D01*
X147754590Y-94388697D01*
X147730867Y-94347607D01*
X147710577Y-94325072D01*
X147614535Y-94218407D01*
X147614534Y-94218406D01*
X147610113Y-94213496D01*
X147532768Y-94157301D01*
X147469457Y-94111303D01*
X147469456Y-94111302D01*
X147464115Y-94107422D01*
X147458087Y-94104738D01*
X147458085Y-94104737D01*
X147305283Y-94036705D01*
X147305281Y-94036705D01*
X147299252Y-94034020D01*
X147210992Y-94015260D01*
X147129189Y-93997872D01*
X147129185Y-93997872D01*
X147122732Y-93996500D01*
X146942268Y-93996500D01*
X146935815Y-93997872D01*
X146935811Y-93997872D01*
X146854008Y-94015260D01*
X146765748Y-94034020D01*
X146759719Y-94036704D01*
X146759717Y-94036705D01*
X146606916Y-94104737D01*
X146606914Y-94104738D01*
X146600886Y-94107422D01*
X146595545Y-94111302D01*
X146595544Y-94111303D01*
X146460231Y-94209613D01*
X146460229Y-94209615D01*
X146454887Y-94213496D01*
X146450466Y-94218406D01*
X146450465Y-94218407D01*
X146354424Y-94325072D01*
X146334133Y-94347607D01*
X146310410Y-94388697D01*
X146262241Y-94472128D01*
X146243901Y-94503893D01*
X146188135Y-94675525D01*
X146187445Y-94682088D01*
X146187445Y-94682089D01*
X146184385Y-94711206D01*
X146169271Y-94855000D01*
X130770500Y-94855000D01*
X130770500Y-92835000D01*
X149829271Y-92835000D01*
X149848135Y-93014475D01*
X149903901Y-93186107D01*
X149994133Y-93342393D01*
X149998551Y-93347300D01*
X149998552Y-93347301D01*
X150099348Y-93459246D01*
X150114887Y-93476504D01*
X150260885Y-93582578D01*
X150266913Y-93585262D01*
X150266915Y-93585263D01*
X150419717Y-93653295D01*
X150425748Y-93655980D01*
X150514008Y-93674740D01*
X150595811Y-93692128D01*
X150595815Y-93692128D01*
X150602268Y-93693500D01*
X150782732Y-93693500D01*
X150789185Y-93692128D01*
X150789189Y-93692128D01*
X150870992Y-93674740D01*
X150959252Y-93655980D01*
X150965283Y-93653295D01*
X150983914Y-93645000D01*
X157019271Y-93645000D01*
X157038135Y-93824475D01*
X157040175Y-93830753D01*
X157040175Y-93830754D01*
X157041923Y-93836134D01*
X157093901Y-93996107D01*
X157184133Y-94152393D01*
X157304887Y-94286504D01*
X157310229Y-94290385D01*
X157310231Y-94290387D01*
X157413289Y-94365263D01*
X157450885Y-94392578D01*
X157456913Y-94395262D01*
X157456915Y-94395263D01*
X157600623Y-94459246D01*
X157615748Y-94465980D01*
X157704008Y-94484740D01*
X157785811Y-94502128D01*
X157785815Y-94502128D01*
X157792268Y-94503500D01*
X157972732Y-94503500D01*
X157979185Y-94502128D01*
X157979189Y-94502128D01*
X158060992Y-94484740D01*
X158149252Y-94465980D01*
X158164377Y-94459246D01*
X158308085Y-94395263D01*
X158308087Y-94395262D01*
X158314115Y-94392578D01*
X158351711Y-94365263D01*
X158454769Y-94290387D01*
X158454771Y-94290385D01*
X158460113Y-94286504D01*
X158580867Y-94152393D01*
X158671099Y-93996107D01*
X158723077Y-93836134D01*
X158724825Y-93830754D01*
X158724825Y-93830753D01*
X158726865Y-93824475D01*
X158745729Y-93645000D01*
X158742576Y-93615000D01*
X160609271Y-93615000D01*
X160628135Y-93794475D01*
X160683901Y-93966107D01*
X160687204Y-93971829D01*
X160687205Y-93971830D01*
X160703246Y-93999613D01*
X160774133Y-94122393D01*
X160778551Y-94127300D01*
X160778552Y-94127301D01*
X160798746Y-94149729D01*
X160894887Y-94256504D01*
X160900229Y-94260385D01*
X160900231Y-94260387D01*
X161013524Y-94342699D01*
X161040885Y-94362578D01*
X161046913Y-94365262D01*
X161046915Y-94365263D01*
X161114296Y-94395263D01*
X161205748Y-94435980D01*
X161294008Y-94454740D01*
X161375811Y-94472128D01*
X161375815Y-94472128D01*
X161382268Y-94473500D01*
X161562732Y-94473500D01*
X161569185Y-94472128D01*
X161569189Y-94472128D01*
X161650992Y-94454740D01*
X161739252Y-94435980D01*
X161830704Y-94395263D01*
X161898085Y-94365263D01*
X161898087Y-94365262D01*
X161904115Y-94362578D01*
X161931476Y-94342699D01*
X162044769Y-94260387D01*
X162044771Y-94260385D01*
X162050113Y-94256504D01*
X162146254Y-94149729D01*
X162166448Y-94127301D01*
X162166449Y-94127300D01*
X162170867Y-94122393D01*
X162241754Y-93999613D01*
X162257795Y-93971830D01*
X162257796Y-93971829D01*
X162261099Y-93966107D01*
X162316865Y-93794475D01*
X162335729Y-93615000D01*
X162316865Y-93435525D01*
X162261099Y-93263893D01*
X162170867Y-93107607D01*
X162081101Y-93007911D01*
X162054535Y-92978407D01*
X162054534Y-92978406D01*
X162050113Y-92973496D01*
X161965648Y-92912128D01*
X161909457Y-92871303D01*
X161909456Y-92871302D01*
X161904115Y-92867422D01*
X161898087Y-92864738D01*
X161898085Y-92864737D01*
X161745283Y-92796705D01*
X161745281Y-92796705D01*
X161739252Y-92794020D01*
X161650992Y-92775260D01*
X161569189Y-92757872D01*
X161569185Y-92757872D01*
X161562732Y-92756500D01*
X161382268Y-92756500D01*
X161375815Y-92757872D01*
X161375811Y-92757872D01*
X161294008Y-92775260D01*
X161205748Y-92794020D01*
X161199719Y-92796704D01*
X161199717Y-92796705D01*
X161046916Y-92864737D01*
X161046914Y-92864738D01*
X161040886Y-92867422D01*
X161035545Y-92871302D01*
X161035544Y-92871303D01*
X160900231Y-92969613D01*
X160900229Y-92969615D01*
X160894887Y-92973496D01*
X160890466Y-92978406D01*
X160890465Y-92978407D01*
X160863900Y-93007911D01*
X160774133Y-93107607D01*
X160683901Y-93263893D01*
X160628135Y-93435525D01*
X160609271Y-93615000D01*
X158742576Y-93615000D01*
X158726865Y-93465525D01*
X158671099Y-93293893D01*
X158653779Y-93263893D01*
X158612173Y-93191830D01*
X158580867Y-93137607D01*
X158559004Y-93113325D01*
X158464535Y-93008407D01*
X158464534Y-93008406D01*
X158460113Y-93003496D01*
X158413478Y-92969613D01*
X158319457Y-92901303D01*
X158319456Y-92901302D01*
X158314115Y-92897422D01*
X158308087Y-92894738D01*
X158308085Y-92894737D01*
X158155283Y-92826705D01*
X158155281Y-92826705D01*
X158149252Y-92824020D01*
X158048374Y-92802578D01*
X157979189Y-92787872D01*
X157979185Y-92787872D01*
X157972732Y-92786500D01*
X157792268Y-92786500D01*
X157785815Y-92787872D01*
X157785811Y-92787872D01*
X157716626Y-92802578D01*
X157615748Y-92824020D01*
X157609719Y-92826704D01*
X157609717Y-92826705D01*
X157456916Y-92894737D01*
X157456914Y-92894738D01*
X157450886Y-92897422D01*
X157445545Y-92901302D01*
X157445544Y-92901303D01*
X157310231Y-92999613D01*
X157310229Y-92999615D01*
X157304887Y-93003496D01*
X157300466Y-93008406D01*
X157300465Y-93008407D01*
X157205997Y-93113325D01*
X157184133Y-93137607D01*
X157152827Y-93191830D01*
X157111222Y-93263893D01*
X157093901Y-93293893D01*
X157038135Y-93465525D01*
X157019271Y-93645000D01*
X150983914Y-93645000D01*
X151118085Y-93585263D01*
X151118087Y-93585262D01*
X151124115Y-93582578D01*
X151270113Y-93476504D01*
X151285652Y-93459246D01*
X151386448Y-93347301D01*
X151386449Y-93347300D01*
X151390867Y-93342393D01*
X151481099Y-93186107D01*
X151536865Y-93014475D01*
X151555729Y-92835000D01*
X151554431Y-92822648D01*
X151537555Y-92662087D01*
X151537554Y-92662084D01*
X151536865Y-92655525D01*
X151534825Y-92649246D01*
X151534417Y-92647326D01*
X151539818Y-92576536D01*
X151582634Y-92519902D01*
X151631464Y-92497882D01*
X151744788Y-92473794D01*
X151750819Y-92471109D01*
X151913222Y-92398803D01*
X151913224Y-92398802D01*
X151919252Y-92396118D01*
X152073753Y-92283866D01*
X152150701Y-92198407D01*
X152197121Y-92146852D01*
X152197122Y-92146851D01*
X152201540Y-92141944D01*
X152251737Y-92055000D01*
X169419271Y-92055000D01*
X169419961Y-92061565D01*
X169425276Y-92112128D01*
X169438135Y-92234475D01*
X169493901Y-92406107D01*
X169584133Y-92562393D01*
X169588551Y-92567300D01*
X169588552Y-92567301D01*
X169700465Y-92691593D01*
X169704887Y-92696504D01*
X169710229Y-92700385D01*
X169710231Y-92700387D01*
X169845543Y-92798697D01*
X169850885Y-92802578D01*
X169856913Y-92805262D01*
X169856915Y-92805263D01*
X169996526Y-92867422D01*
X170015748Y-92875980D01*
X170103994Y-92894737D01*
X170185811Y-92912128D01*
X170185815Y-92912128D01*
X170192268Y-92913500D01*
X170372732Y-92913500D01*
X170379185Y-92912128D01*
X170379189Y-92912128D01*
X170461006Y-92894737D01*
X170549252Y-92875980D01*
X170568474Y-92867422D01*
X170708085Y-92805263D01*
X170708087Y-92805262D01*
X170714115Y-92802578D01*
X170719457Y-92798697D01*
X170854769Y-92700387D01*
X170854771Y-92700385D01*
X170860113Y-92696504D01*
X170864535Y-92691593D01*
X170976448Y-92567301D01*
X170976449Y-92567300D01*
X170980867Y-92562393D01*
X171071099Y-92406107D01*
X171126865Y-92234475D01*
X171139725Y-92112128D01*
X171145039Y-92061565D01*
X171145729Y-92055000D01*
X171126865Y-91875525D01*
X171071099Y-91703893D01*
X170980867Y-91547607D01*
X170867442Y-91421635D01*
X170864535Y-91418407D01*
X170864534Y-91418406D01*
X170860113Y-91413496D01*
X170853642Y-91408794D01*
X170719457Y-91311303D01*
X170719456Y-91311302D01*
X170714115Y-91307422D01*
X170708087Y-91304738D01*
X170708085Y-91304737D01*
X170555283Y-91236705D01*
X170555281Y-91236705D01*
X170549252Y-91234020D01*
X170460992Y-91215260D01*
X170379189Y-91197872D01*
X170379185Y-91197872D01*
X170372732Y-91196500D01*
X170192268Y-91196500D01*
X170185815Y-91197872D01*
X170185811Y-91197872D01*
X170104008Y-91215260D01*
X170015748Y-91234020D01*
X170009719Y-91236704D01*
X170009717Y-91236705D01*
X169856916Y-91304737D01*
X169856914Y-91304738D01*
X169850886Y-91307422D01*
X169845545Y-91311302D01*
X169845544Y-91311303D01*
X169710231Y-91409613D01*
X169710229Y-91409615D01*
X169704887Y-91413496D01*
X169700466Y-91418406D01*
X169700465Y-91418407D01*
X169697559Y-91421635D01*
X169584133Y-91547607D01*
X169493901Y-91703893D01*
X169438135Y-91875525D01*
X169419271Y-92055000D01*
X152251737Y-92055000D01*
X152276189Y-92012648D01*
X152293723Y-91982279D01*
X152293724Y-91982278D01*
X152297027Y-91976556D01*
X152356042Y-91794928D01*
X152363694Y-91722128D01*
X152375314Y-91611565D01*
X152376004Y-91605000D01*
X152356042Y-91415072D01*
X152297027Y-91233444D01*
X152287018Y-91216107D01*
X152204841Y-91073774D01*
X152201540Y-91068056D01*
X152174398Y-91037911D01*
X152078175Y-90931045D01*
X152078174Y-90931044D01*
X152073753Y-90926134D01*
X151989610Y-90865000D01*
X157179271Y-90865000D01*
X157179961Y-90871565D01*
X157195045Y-91015072D01*
X157198135Y-91044475D01*
X157200175Y-91050753D01*
X157200175Y-91050754D01*
X157220562Y-91113500D01*
X157253901Y-91216107D01*
X157257204Y-91221829D01*
X157257205Y-91221830D01*
X157264243Y-91234020D01*
X157344133Y-91372393D01*
X157348551Y-91377300D01*
X157348552Y-91377301D01*
X157377646Y-91409613D01*
X157464887Y-91506504D01*
X157470229Y-91510385D01*
X157470231Y-91510387D01*
X157561305Y-91576556D01*
X157610885Y-91612578D01*
X157616913Y-91615262D01*
X157616915Y-91615263D01*
X157769717Y-91683295D01*
X157775748Y-91685980D01*
X157860023Y-91703893D01*
X157945811Y-91722128D01*
X157945815Y-91722128D01*
X157952268Y-91723500D01*
X158132732Y-91723500D01*
X158139185Y-91722128D01*
X158139189Y-91722128D01*
X158224977Y-91703893D01*
X158309252Y-91685980D01*
X158315283Y-91683295D01*
X158468085Y-91615263D01*
X158468087Y-91615262D01*
X158474115Y-91612578D01*
X158523695Y-91576556D01*
X158614769Y-91510387D01*
X158614771Y-91510385D01*
X158620113Y-91506504D01*
X158707354Y-91409613D01*
X158736448Y-91377301D01*
X158736449Y-91377300D01*
X158740867Y-91372393D01*
X158820757Y-91234020D01*
X158827795Y-91221830D01*
X158827796Y-91221829D01*
X158831099Y-91216107D01*
X158864438Y-91113500D01*
X158884825Y-91050754D01*
X158884825Y-91050753D01*
X158886865Y-91044475D01*
X158889956Y-91015072D01*
X158905039Y-90871565D01*
X158905729Y-90865000D01*
X158886865Y-90685525D01*
X158831099Y-90513893D01*
X158740867Y-90357607D01*
X158721598Y-90336206D01*
X158624535Y-90228407D01*
X158624534Y-90228406D01*
X158620113Y-90223496D01*
X158603692Y-90211565D01*
X158479457Y-90121303D01*
X158479456Y-90121302D01*
X158474115Y-90117422D01*
X158468087Y-90114738D01*
X158468085Y-90114737D01*
X158315283Y-90046705D01*
X158315281Y-90046705D01*
X158309252Y-90044020D01*
X158220992Y-90025260D01*
X158139189Y-90007872D01*
X158139185Y-90007872D01*
X158132732Y-90006500D01*
X157952268Y-90006500D01*
X157945815Y-90007872D01*
X157945811Y-90007872D01*
X157864008Y-90025260D01*
X157775748Y-90044020D01*
X157769719Y-90046704D01*
X157769717Y-90046705D01*
X157616916Y-90114737D01*
X157616914Y-90114738D01*
X157610886Y-90117422D01*
X157605545Y-90121302D01*
X157605544Y-90121303D01*
X157470231Y-90219613D01*
X157470229Y-90219615D01*
X157464887Y-90223496D01*
X157460466Y-90228406D01*
X157460465Y-90228407D01*
X157363403Y-90336206D01*
X157344133Y-90357607D01*
X157253901Y-90513893D01*
X157198135Y-90685525D01*
X157179271Y-90865000D01*
X151989610Y-90865000D01*
X151919252Y-90813882D01*
X151913224Y-90811198D01*
X151913222Y-90811197D01*
X151750819Y-90738891D01*
X151750818Y-90738891D01*
X151744788Y-90736206D01*
X151651388Y-90716353D01*
X151564444Y-90697872D01*
X151564439Y-90697872D01*
X151557987Y-90696500D01*
X151367013Y-90696500D01*
X151360561Y-90697872D01*
X151360556Y-90697872D01*
X151273612Y-90716353D01*
X151180212Y-90736206D01*
X151174182Y-90738891D01*
X151174181Y-90738891D01*
X151011778Y-90811197D01*
X151011776Y-90811198D01*
X151005748Y-90813882D01*
X150851247Y-90926134D01*
X150846826Y-90931044D01*
X150846825Y-90931045D01*
X150750603Y-91037911D01*
X150723460Y-91068056D01*
X150720159Y-91073774D01*
X150637983Y-91216107D01*
X150627973Y-91233444D01*
X150568958Y-91415072D01*
X150548996Y-91605000D01*
X150549686Y-91611565D01*
X150561451Y-91723500D01*
X150568958Y-91794928D01*
X150583052Y-91838305D01*
X150585080Y-91909270D01*
X150548418Y-91970068D01*
X150489416Y-92000487D01*
X150477307Y-92003061D01*
X150425748Y-92014020D01*
X150419719Y-92016704D01*
X150419717Y-92016705D01*
X150266916Y-92084737D01*
X150266914Y-92084738D01*
X150260886Y-92087422D01*
X150255545Y-92091302D01*
X150255544Y-92091303D01*
X150120231Y-92189613D01*
X150120229Y-92189615D01*
X150114887Y-92193496D01*
X150110466Y-92198406D01*
X150110465Y-92198407D01*
X150033518Y-92283866D01*
X149994133Y-92327607D01*
X149990832Y-92333325D01*
X149908940Y-92475166D01*
X149903901Y-92483893D01*
X149848135Y-92655525D01*
X149829271Y-92835000D01*
X130770500Y-92835000D01*
X130770500Y-91205000D01*
X147848996Y-91205000D01*
X147849686Y-91211565D01*
X147866590Y-91372393D01*
X147868958Y-91394928D01*
X147927973Y-91576556D01*
X147931276Y-91582278D01*
X147931277Y-91582279D01*
X147965186Y-91641010D01*
X148023460Y-91741944D01*
X148027878Y-91746851D01*
X148027879Y-91746852D01*
X148071167Y-91794928D01*
X148151247Y-91883866D01*
X148305748Y-91996118D01*
X148311776Y-91998802D01*
X148311778Y-91998803D01*
X148452745Y-92061565D01*
X148480212Y-92073794D01*
X148562585Y-92091303D01*
X148660556Y-92112128D01*
X148660561Y-92112128D01*
X148667013Y-92113500D01*
X148857987Y-92113500D01*
X148864439Y-92112128D01*
X148864444Y-92112128D01*
X148962415Y-92091303D01*
X149044788Y-92073794D01*
X149072255Y-92061565D01*
X149213222Y-91998803D01*
X149213224Y-91998802D01*
X149219252Y-91996118D01*
X149373753Y-91883866D01*
X149453833Y-91794928D01*
X149497121Y-91746852D01*
X149497122Y-91746851D01*
X149501540Y-91741944D01*
X149559814Y-91641010D01*
X149593723Y-91582279D01*
X149593724Y-91582278D01*
X149597027Y-91576556D01*
X149656042Y-91394928D01*
X149658411Y-91372393D01*
X149675314Y-91211565D01*
X149676004Y-91205000D01*
X149659792Y-91050754D01*
X149656732Y-91021635D01*
X149656732Y-91021633D01*
X149656042Y-91015072D01*
X149597027Y-90833444D01*
X149501540Y-90668056D01*
X149373753Y-90526134D01*
X149219252Y-90413882D01*
X149213224Y-90411198D01*
X149213222Y-90411197D01*
X149050819Y-90338891D01*
X149050818Y-90338891D01*
X149044788Y-90336206D01*
X148951388Y-90316353D01*
X148864444Y-90297872D01*
X148864439Y-90297872D01*
X148857987Y-90296500D01*
X148667013Y-90296500D01*
X148660561Y-90297872D01*
X148660556Y-90297872D01*
X148573612Y-90316353D01*
X148480212Y-90336206D01*
X148474182Y-90338891D01*
X148474181Y-90338891D01*
X148311778Y-90411197D01*
X148311776Y-90411198D01*
X148305748Y-90413882D01*
X148151247Y-90526134D01*
X148023460Y-90668056D01*
X147927973Y-90833444D01*
X147868958Y-91015072D01*
X147868268Y-91021633D01*
X147868268Y-91021635D01*
X147865208Y-91050754D01*
X147848996Y-91205000D01*
X130770500Y-91205000D01*
X130770500Y-90205000D01*
X144148996Y-90205000D01*
X144149686Y-90211565D01*
X144164520Y-90352699D01*
X144168958Y-90394928D01*
X144227973Y-90576556D01*
X144323460Y-90741944D01*
X144327878Y-90746851D01*
X144327879Y-90746852D01*
X144388233Y-90813882D01*
X144451247Y-90883866D01*
X144605748Y-90996118D01*
X144611776Y-90998802D01*
X144611778Y-90998803D01*
X144767324Y-91068056D01*
X144780212Y-91073794D01*
X144873613Y-91093647D01*
X144960556Y-91112128D01*
X144960561Y-91112128D01*
X144967013Y-91113500D01*
X145157987Y-91113500D01*
X145164439Y-91112128D01*
X145164444Y-91112128D01*
X145251387Y-91093647D01*
X145344788Y-91073794D01*
X145357676Y-91068056D01*
X145513222Y-90998803D01*
X145513224Y-90998802D01*
X145519252Y-90996118D01*
X145673753Y-90883866D01*
X145736767Y-90813882D01*
X145797121Y-90746852D01*
X145797122Y-90746851D01*
X145801540Y-90741944D01*
X145897027Y-90576556D01*
X145956042Y-90394928D01*
X145960481Y-90352699D01*
X145975314Y-90211565D01*
X145976004Y-90205000D01*
X145959085Y-90044020D01*
X145956732Y-90021635D01*
X145956732Y-90021633D01*
X145956042Y-90015072D01*
X145897027Y-89833444D01*
X145801540Y-89668056D01*
X145673753Y-89526134D01*
X145519252Y-89413882D01*
X145513224Y-89411198D01*
X145513222Y-89411197D01*
X145350819Y-89338891D01*
X145350818Y-89338891D01*
X145344788Y-89336206D01*
X145251387Y-89316353D01*
X145164444Y-89297872D01*
X145164439Y-89297872D01*
X145157987Y-89296500D01*
X144967013Y-89296500D01*
X144960561Y-89297872D01*
X144960556Y-89297872D01*
X144873613Y-89316353D01*
X144780212Y-89336206D01*
X144774182Y-89338891D01*
X144774181Y-89338891D01*
X144611778Y-89411197D01*
X144611776Y-89411198D01*
X144605748Y-89413882D01*
X144451247Y-89526134D01*
X144323460Y-89668056D01*
X144227973Y-89833444D01*
X144168958Y-90015072D01*
X144168268Y-90021633D01*
X144168268Y-90021635D01*
X144165915Y-90044020D01*
X144148996Y-90205000D01*
X130770500Y-90205000D01*
X130770500Y-87254328D01*
X130772000Y-87234943D01*
X130774305Y-87220142D01*
X130774305Y-87220139D01*
X130775686Y-87211270D01*
X130774866Y-87205000D01*
X131049026Y-87205000D01*
X131068891Y-87457403D01*
X131127995Y-87703591D01*
X131224884Y-87937502D01*
X131357172Y-88153376D01*
X131521602Y-88345898D01*
X131714124Y-88510328D01*
X131929998Y-88642616D01*
X131934568Y-88644509D01*
X131934572Y-88644511D01*
X132159336Y-88737611D01*
X132163909Y-88739505D01*
X132248532Y-88759821D01*
X132405284Y-88797454D01*
X132405290Y-88797455D01*
X132410097Y-88798609D01*
X132509916Y-88806465D01*
X132596845Y-88813307D01*
X132596852Y-88813307D01*
X132599301Y-88813500D01*
X132725699Y-88813500D01*
X132728148Y-88813307D01*
X132728155Y-88813307D01*
X132815084Y-88806465D01*
X132914903Y-88798609D01*
X132919710Y-88797455D01*
X132919716Y-88797454D01*
X133076468Y-88759821D01*
X133161091Y-88739505D01*
X133165664Y-88737611D01*
X133390428Y-88644511D01*
X133390432Y-88644509D01*
X133395002Y-88642616D01*
X133610876Y-88510328D01*
X133803398Y-88345898D01*
X133967828Y-88153376D01*
X134100116Y-87937502D01*
X134197005Y-87703591D01*
X134256109Y-87457403D01*
X134275974Y-87205000D01*
X174949026Y-87205000D01*
X174968891Y-87457403D01*
X175027995Y-87703591D01*
X175124884Y-87937502D01*
X175257172Y-88153376D01*
X175421602Y-88345898D01*
X175614124Y-88510328D01*
X175829998Y-88642616D01*
X175834568Y-88644509D01*
X175834572Y-88644511D01*
X176059336Y-88737611D01*
X176063909Y-88739505D01*
X176148532Y-88759821D01*
X176305284Y-88797454D01*
X176305290Y-88797455D01*
X176310097Y-88798609D01*
X176409916Y-88806465D01*
X176496845Y-88813307D01*
X176496852Y-88813307D01*
X176499301Y-88813500D01*
X176625699Y-88813500D01*
X176628148Y-88813307D01*
X176628155Y-88813307D01*
X176715084Y-88806465D01*
X176814903Y-88798609D01*
X176819710Y-88797455D01*
X176819716Y-88797454D01*
X176976468Y-88759821D01*
X177061091Y-88739505D01*
X177065664Y-88737611D01*
X177290428Y-88644511D01*
X177290432Y-88644509D01*
X177295002Y-88642616D01*
X177510876Y-88510328D01*
X177703398Y-88345898D01*
X177867828Y-88153376D01*
X178000116Y-87937502D01*
X178097005Y-87703591D01*
X178156109Y-87457403D01*
X178175974Y-87205000D01*
X178156109Y-86952597D01*
X178145026Y-86906430D01*
X178098160Y-86711221D01*
X178097005Y-86706409D01*
X178035072Y-86556889D01*
X178002011Y-86477072D01*
X178002009Y-86477068D01*
X178000116Y-86472498D01*
X177995439Y-86464865D01*
X177951762Y-86393591D01*
X177867828Y-86256624D01*
X177703398Y-86064102D01*
X177510876Y-85899672D01*
X177295002Y-85767384D01*
X177290432Y-85765491D01*
X177290428Y-85765489D01*
X177065664Y-85672389D01*
X177065662Y-85672388D01*
X177061091Y-85670495D01*
X176968941Y-85648372D01*
X176819716Y-85612546D01*
X176819710Y-85612545D01*
X176814903Y-85611391D01*
X176715084Y-85603535D01*
X176628155Y-85596693D01*
X176628148Y-85596693D01*
X176625699Y-85596500D01*
X176499301Y-85596500D01*
X176496852Y-85596693D01*
X176496845Y-85596693D01*
X176409916Y-85603535D01*
X176310097Y-85611391D01*
X176305290Y-85612545D01*
X176305284Y-85612546D01*
X176156059Y-85648372D01*
X176063909Y-85670495D01*
X176059338Y-85672388D01*
X176059336Y-85672389D01*
X175834572Y-85765489D01*
X175834568Y-85765491D01*
X175829998Y-85767384D01*
X175614124Y-85899672D01*
X175421602Y-86064102D01*
X175257172Y-86256624D01*
X175173238Y-86393591D01*
X175129562Y-86464865D01*
X175124884Y-86472498D01*
X175122991Y-86477068D01*
X175122989Y-86477072D01*
X175089928Y-86556889D01*
X175027995Y-86706409D01*
X175026840Y-86711221D01*
X174979975Y-86906430D01*
X174968891Y-86952597D01*
X174949026Y-87205000D01*
X134275974Y-87205000D01*
X134256109Y-86952597D01*
X134245026Y-86906430D01*
X134198160Y-86711221D01*
X134197005Y-86706409D01*
X134135072Y-86556889D01*
X134102011Y-86477072D01*
X134102009Y-86477068D01*
X134100116Y-86472498D01*
X134095439Y-86464865D01*
X134051762Y-86393591D01*
X133967828Y-86256624D01*
X133803398Y-86064102D01*
X133610876Y-85899672D01*
X133395002Y-85767384D01*
X133390432Y-85765491D01*
X133390428Y-85765489D01*
X133165664Y-85672389D01*
X133165662Y-85672388D01*
X133161091Y-85670495D01*
X133068941Y-85648372D01*
X132919716Y-85612546D01*
X132919710Y-85612545D01*
X132914903Y-85611391D01*
X132815084Y-85603535D01*
X132728155Y-85596693D01*
X132728148Y-85596693D01*
X132725699Y-85596500D01*
X132599301Y-85596500D01*
X132596852Y-85596693D01*
X132596845Y-85596693D01*
X132509916Y-85603535D01*
X132410097Y-85611391D01*
X132405290Y-85612545D01*
X132405284Y-85612546D01*
X132256059Y-85648372D01*
X132163909Y-85670495D01*
X132159338Y-85672388D01*
X132159336Y-85672389D01*
X131934572Y-85765489D01*
X131934568Y-85765491D01*
X131929998Y-85767384D01*
X131714124Y-85899672D01*
X131521602Y-86064102D01*
X131357172Y-86256624D01*
X131273238Y-86393591D01*
X131229562Y-86464865D01*
X131224884Y-86472498D01*
X131222991Y-86477068D01*
X131222989Y-86477072D01*
X131189928Y-86556889D01*
X131127995Y-86706409D01*
X131126840Y-86711221D01*
X131079975Y-86906430D01*
X131068891Y-86952597D01*
X131049026Y-87205000D01*
X130774866Y-87205000D01*
X130773559Y-87195002D01*
X130772766Y-87170432D01*
X130786146Y-86966289D01*
X130788297Y-86949948D01*
X130833359Y-86723411D01*
X130837625Y-86707492D01*
X130911865Y-86488785D01*
X130918172Y-86473558D01*
X131020327Y-86266408D01*
X131028568Y-86252134D01*
X131156889Y-86060089D01*
X131166922Y-86047014D01*
X131199518Y-86009845D01*
X131319215Y-85873356D01*
X131330856Y-85861715D01*
X131504514Y-85709422D01*
X131517589Y-85699389D01*
X131709634Y-85571068D01*
X131723908Y-85562827D01*
X131931058Y-85460672D01*
X131946285Y-85454365D01*
X132164992Y-85380125D01*
X132180911Y-85375859D01*
X132407448Y-85330797D01*
X132423790Y-85328646D01*
X132620769Y-85315736D01*
X132643804Y-85316761D01*
X132647354Y-85316804D01*
X132656230Y-85318186D01*
X132687752Y-85314064D01*
X132704089Y-85313000D01*
X149126512Y-85313000D01*
X149194633Y-85333002D01*
G37*
%TD.AperFunction*%
%TD*%
M02*
