%TF.GenerationSoftware,KiCad,Pcbnew,(6.0.0)*%
%TF.CreationDate,2022-11-12T11:45:22+03:00*%
%TF.ProjectId,RoBEC,526f4245-432e-46b6-9963-61645f706362,rev?*%
%TF.SameCoordinates,Original*%
%TF.FileFunction,Paste,Top*%
%TF.FilePolarity,Positive*%
%FSLAX46Y46*%
G04 Gerber Fmt 4.6, Leading zero omitted, Abs format (unit mm)*
G04 Created by KiCad (PCBNEW (6.0.0)) date 2022-11-12 11:45:22*
%MOMM*%
%LPD*%
G01*
G04 APERTURE LIST*
G04 Aperture macros list*
%AMRoundRect*
0 Rectangle with rounded corners*
0 $1 Rounding radius*
0 $2 $3 $4 $5 $6 $7 $8 $9 X,Y pos of 4 corners*
0 Add a 4 corners polygon primitive as box body*
4,1,4,$2,$3,$4,$5,$6,$7,$8,$9,$2,$3,0*
0 Add four circle primitives for the rounded corners*
1,1,$1+$1,$2,$3*
1,1,$1+$1,$4,$5*
1,1,$1+$1,$6,$7*
1,1,$1+$1,$8,$9*
0 Add four rect primitives between the rounded corners*
20,1,$1+$1,$2,$3,$4,$5,0*
20,1,$1+$1,$4,$5,$6,$7,0*
20,1,$1+$1,$6,$7,$8,$9,0*
20,1,$1+$1,$8,$9,$2,$3,0*%
G04 Aperture macros list end*
%ADD10RoundRect,0.140000X0.140000X0.170000X-0.140000X0.170000X-0.140000X-0.170000X0.140000X-0.170000X0*%
%ADD11RoundRect,0.079500X-0.079500X-0.100500X0.079500X-0.100500X0.079500X0.100500X-0.079500X0.100500X0*%
%ADD12RoundRect,0.150000X-0.587500X-0.150000X0.587500X-0.150000X0.587500X0.150000X-0.587500X0.150000X0*%
%ADD13RoundRect,0.249999X1.075001X-0.512501X1.075001X0.512501X-1.075001X0.512501X-1.075001X-0.512501X0*%
%ADD14RoundRect,0.250000X-0.250000X-0.475000X0.250000X-0.475000X0.250000X0.475000X-0.250000X0.475000X0*%
%ADD15RoundRect,0.250000X0.475000X-0.250000X0.475000X0.250000X-0.475000X0.250000X-0.475000X-0.250000X0*%
%ADD16RoundRect,0.079500X0.100500X-0.079500X0.100500X0.079500X-0.100500X0.079500X-0.100500X-0.079500X0*%
%ADD17RoundRect,0.079500X-0.100500X0.079500X-0.100500X-0.079500X0.100500X-0.079500X0.100500X0.079500X0*%
%ADD18RoundRect,0.075000X-0.105000X0.075000X-0.105000X-0.075000X0.105000X-0.075000X0.105000X0.075000X0*%
%ADD19RoundRect,0.140000X-0.140000X-0.170000X0.140000X-0.170000X0.140000X0.170000X-0.140000X0.170000X0*%
%ADD20R,1.400000X0.400000*%
%ADD21R,1.900000X1.800000*%
%ADD22R,1.900000X2.300000*%
%ADD23RoundRect,0.140000X-0.170000X0.140000X-0.170000X-0.140000X0.170000X-0.140000X0.170000X0.140000X0*%
%ADD24R,1.150000X0.600000*%
%ADD25R,0.800000X1.000000*%
%ADD26R,1.500000X0.700000*%
%ADD27RoundRect,0.218750X0.381250X-0.218750X0.381250X0.218750X-0.381250X0.218750X-0.381250X-0.218750X0*%
%ADD28RoundRect,0.225000X0.250000X-0.225000X0.250000X0.225000X-0.250000X0.225000X-0.250000X-0.225000X0*%
%ADD29R,1.400000X1.200000*%
%ADD30RoundRect,0.075000X-0.700000X-0.075000X0.700000X-0.075000X0.700000X0.075000X-0.700000X0.075000X0*%
%ADD31RoundRect,0.075000X-0.075000X-0.700000X0.075000X-0.700000X0.075000X0.700000X-0.075000X0.700000X0*%
%ADD32RoundRect,0.250000X-0.475000X0.250000X-0.475000X-0.250000X0.475000X-0.250000X0.475000X0.250000X0*%
%ADD33RoundRect,0.225000X0.225000X0.250000X-0.225000X0.250000X-0.225000X-0.250000X0.225000X-0.250000X0*%
%ADD34RoundRect,0.150000X0.512500X0.150000X-0.512500X0.150000X-0.512500X-0.150000X0.512500X-0.150000X0*%
%ADD35RoundRect,0.147500X-0.147500X-0.172500X0.147500X-0.172500X0.147500X0.172500X-0.147500X0.172500X0*%
%ADD36R,2.500000X1.900000*%
%ADD37RoundRect,0.243750X-0.243750X-0.456250X0.243750X-0.456250X0.243750X0.456250X-0.243750X0.456250X0*%
%ADD38R,0.900000X1.200000*%
%ADD39R,1.200000X0.900000*%
G04 APERTURE END LIST*
D10*
%TO.C,C9*%
X158842500Y-94305000D03*
X157882500Y-94305000D03*
%TD*%
D11*
%TO.C,R12*%
X149572500Y-111005000D03*
X150262500Y-111005000D03*
%TD*%
D12*
%TO.C,Q1*%
X163125000Y-108955000D03*
X163125000Y-110855000D03*
X165000000Y-109905000D03*
%TD*%
D13*
%TO.C,POWER LED*%
X169262500Y-109242500D03*
X169262500Y-104567500D03*
%TD*%
D14*
%TO.C,C10*%
X158012500Y-89805000D03*
X159912500Y-89805000D03*
%TD*%
D15*
%TO.C,C8*%
X163962500Y-94655000D03*
X163962500Y-92755000D03*
%TD*%
D16*
%TO.C,R7*%
X165607500Y-99130000D03*
X165607500Y-98440000D03*
%TD*%
D17*
%TO.C,R18*%
X171307500Y-95660000D03*
D18*
X171307500Y-96350000D03*
%TD*%
D19*
%TO.C,C6*%
X158362500Y-106705000D03*
X159322500Y-106705000D03*
%TD*%
D20*
%TO.C,J2*%
X174212500Y-96805000D03*
X174212500Y-96155000D03*
X174212500Y-95505000D03*
X174212500Y-94855000D03*
X174212500Y-94205000D03*
D21*
X177062500Y-94355000D03*
X177062500Y-96655000D03*
D22*
X177062500Y-99255000D03*
X177062500Y-91755000D03*
%TD*%
D23*
%TO.C,C14*%
X163462500Y-100345000D03*
X163462500Y-101305000D03*
%TD*%
D17*
%TO.C,R14*%
X171307500Y-97515000D03*
X171307500Y-98205000D03*
%TD*%
%TO.C,R17*%
X145062500Y-99660000D03*
X145062500Y-100350000D03*
%TD*%
D24*
%TO.C,U2*%
X169807500Y-100755000D03*
X169807500Y-99805000D03*
X169807500Y-98855000D03*
X167207500Y-98855000D03*
X167207500Y-99805000D03*
X167207500Y-100755000D03*
%TD*%
D17*
%TO.C,R6*%
X165607500Y-100060000D03*
X165607500Y-100750000D03*
%TD*%
D25*
%TO.C,SW*%
X133342500Y-97955000D03*
X131132500Y-105255000D03*
X133342500Y-105255000D03*
X131132500Y-97955000D03*
D26*
X133992500Y-99355000D03*
X133992500Y-102355000D03*
X133992500Y-103855000D03*
%TD*%
D11*
%TO.C,R5*%
X147707500Y-111605000D03*
X147017500Y-111605000D03*
%TD*%
D27*
%TO.C,FB1*%
X163962500Y-98767500D03*
X163962500Y-96642500D03*
%TD*%
D23*
%TO.C,C7*%
X138062500Y-104205000D03*
X138062500Y-105165000D03*
%TD*%
D28*
%TO.C,C2*%
X137562500Y-98980000D03*
X137562500Y-97430000D03*
%TD*%
D14*
%TO.C,C12*%
X157112500Y-109205000D03*
X159012500Y-109205000D03*
%TD*%
D29*
%TO.C,16MhZ*%
X140562500Y-99305000D03*
X142762500Y-99305000D03*
X142762500Y-97705000D03*
X140562500Y-97705000D03*
%TD*%
D11*
%TO.C,R1*%
X151717500Y-92705000D03*
X152407500Y-92705000D03*
%TD*%
D30*
%TO.C,U1*%
X147287500Y-96655000D03*
X147287500Y-97155000D03*
X147287500Y-97655000D03*
X147287500Y-98155000D03*
X147287500Y-98655000D03*
X147287500Y-99155000D03*
X147287500Y-99655000D03*
X147287500Y-100155000D03*
X147287500Y-100655000D03*
X147287500Y-101155000D03*
X147287500Y-101655000D03*
X147287500Y-102155000D03*
X147287500Y-102655000D03*
X147287500Y-103155000D03*
X147287500Y-103655000D03*
X147287500Y-104155000D03*
D31*
X149212500Y-106080000D03*
X149712500Y-106080000D03*
X150212500Y-106080000D03*
X150712500Y-106080000D03*
X151212500Y-106080000D03*
X151712500Y-106080000D03*
X152212500Y-106080000D03*
X152712500Y-106080000D03*
X153212500Y-106080000D03*
X153712500Y-106080000D03*
X154212500Y-106080000D03*
X154712500Y-106080000D03*
X155212500Y-106080000D03*
X155712500Y-106080000D03*
X156212500Y-106080000D03*
X156712500Y-106080000D03*
D30*
X158637500Y-104155000D03*
X158637500Y-103655000D03*
X158637500Y-103155000D03*
X158637500Y-102655000D03*
X158637500Y-102155000D03*
X158637500Y-101655000D03*
X158637500Y-101155000D03*
X158637500Y-100655000D03*
X158637500Y-100155000D03*
X158637500Y-99655000D03*
X158637500Y-99155000D03*
X158637500Y-98655000D03*
X158637500Y-98155000D03*
X158637500Y-97655000D03*
X158637500Y-97155000D03*
X158637500Y-96655000D03*
D31*
X156712500Y-94730000D03*
X156212500Y-94730000D03*
X155712500Y-94730000D03*
X155212500Y-94730000D03*
X154712500Y-94730000D03*
X154212500Y-94730000D03*
X153712500Y-94730000D03*
X153212500Y-94730000D03*
X152712500Y-94730000D03*
X152212500Y-94730000D03*
X151712500Y-94730000D03*
X151212500Y-94730000D03*
X150712500Y-94730000D03*
X150212500Y-94730000D03*
X149712500Y-94730000D03*
X149212500Y-94730000D03*
%TD*%
D32*
%TO.C,C1*%
X145962500Y-92955000D03*
X145962500Y-94855000D03*
%TD*%
D33*
%TO.C,C5*%
X143062500Y-93405000D03*
X141512500Y-93405000D03*
%TD*%
D10*
%TO.C,C15*%
X168787500Y-102405000D03*
X167827500Y-102405000D03*
%TD*%
D34*
%TO.C,U3*%
X163100000Y-106155000D03*
X163100000Y-105205000D03*
X163100000Y-104255000D03*
X160825000Y-104255000D03*
X160825000Y-105205000D03*
X160825000Y-106155000D03*
%TD*%
D35*
%TO.C,L2*%
X166877500Y-96305000D03*
X167847500Y-96305000D03*
%TD*%
D17*
%TO.C,R15*%
X171307500Y-99460000D03*
X171307500Y-100150000D03*
%TD*%
D11*
%TO.C,R9*%
X155852500Y-111005000D03*
X155162500Y-111005000D03*
%TD*%
D28*
%TO.C,C4*%
X138062500Y-102780000D03*
X138062500Y-101230000D03*
%TD*%
D19*
%TO.C,C11*%
X149102500Y-92805000D03*
X150062500Y-92805000D03*
%TD*%
D32*
%TO.C,C13*%
X161562500Y-99255000D03*
X161562500Y-99255000D03*
X161562500Y-101155000D03*
%TD*%
D11*
%TO.C,R3*%
X146952500Y-106305000D03*
X146262500Y-106305000D03*
%TD*%
D36*
%TO.C,L*%
X142262500Y-106655000D03*
X142262500Y-102555000D03*
%TD*%
D23*
%TO.C,C3*%
X148832500Y-107945000D03*
X148832500Y-108905000D03*
%TD*%
D16*
%TO.C,R2*%
X145262500Y-96960000D03*
X145262500Y-97650000D03*
%TD*%
D37*
%TO.C,STATUS*%
X145425000Y-109005000D03*
X147300000Y-109005000D03*
%TD*%
D11*
%TO.C,R4*%
X151407500Y-108405000D03*
X150717500Y-108405000D03*
%TD*%
%TO.C,R16*%
X157487500Y-92605000D03*
X156797500Y-92605000D03*
%TD*%
D38*
%TO.C,D1*%
X170312500Y-93005000D03*
X167012500Y-93005000D03*
%TD*%
D15*
%TO.C,C16*%
X161462500Y-96355000D03*
X161462500Y-94455000D03*
%TD*%
D39*
%TO.C,D3*%
X165462500Y-102455000D03*
X165462500Y-105755000D03*
%TD*%
D11*
%TO.C,R8*%
X145507500Y-111005000D03*
X144817500Y-111005000D03*
%TD*%
%TO.C,R10*%
X153417500Y-111005000D03*
X154107500Y-111005000D03*
%TD*%
M02*
