M48
; DRILL file {KiCad (6.0.0)} date Sat Nov 12 11:44:53 2022
; FORMAT={-:-/ absolute / metric / decimal}
; #@! TF.CreationDate,2022-11-12T11:44:53+03:00
; #@! TF.GenerationSoftware,Kicad,Pcbnew,(6.0.0)
; #@! TF.FileFunction,MixedPlating,1,4
FMAT,2
METRIC
; #@! TA.AperFunction,Plated,PTH,ViaDrill
T1C0.400
; #@! TA.AperFunction,Plated,PTH,ComponentDrill
T2C0.500
; #@! TA.AperFunction,Plated,PTH,ComponentDrill
T3C1.300
; #@! TA.AperFunction,NonPlated,NPTH,ComponentDrill
T4C0.900
; #@! TA.AperFunction,NonPlated,NPTH,ComponentDrill
T5C2.200
%
G90
G05
T1
X134.532Y-98.715
X141.183Y-96.795
X142.762Y-100.255
X144.572Y-111.565
X145.062Y-90.205
X145.062Y-99.154
X146.262Y-110.505
X146.463Y-111.605
X146.922Y-106.855
X147.032Y-94.855
X147.851Y-110.368
X148.362Y-109.235
X148.412Y-107.435
X148.572Y-94.865
X148.762Y-91.205
X148.782Y-102.105
X149.183Y-104.585
X149.493Y-111.515
X149.762Y-107.695
X149.772Y-97.315
X150.252Y-108.675
X150.433Y-104.405
X150.692Y-92.835
X151.463Y-91.605
X151.642Y-104.605
X153.362Y-110.485
X154.162Y-103.905
X154.539Y-97.875
X154.539Y-98.925
X155.192Y-111.555
X155.963Y-103.205
X157.362Y-111.205
X157.882Y-93.645
X158.042Y-90.865
X158.362Y-106.045
X158.832Y-94.965
X159.222Y-105.125
X159.672Y-96.355
X159.922Y-90.875
X160.534Y-102.605
X161.472Y-93.615
X161.838Y-105.105
X162.812Y-101.255
X164.062Y-113.205
X164.153Y-105.235
X164.252Y-108.925
X165.032Y-94.645
X165.242Y-97.975
X165.473Y-107.476
X165.662Y-104.205
X166.123Y-108.455
X166.413Y-109.875
X168.882Y-99.795
X169.242Y-110.345
X170.282Y-92.055
X172.162Y-109.505
X172.433Y-94.515
X172.435Y-95.976
X173.662Y-100.005
T2
X148.062Y-116.005
X149.062Y-116.005
X149.862Y-86.205
X150.062Y-116.005
X150.862Y-86.205
X151.062Y-116.005
X151.862Y-86.205
X152.062Y-116.005
X152.862Y-86.205
X153.062Y-116.005
X153.862Y-86.205
X154.062Y-116.005
X154.862Y-86.205
X155.062Y-116.005
X155.862Y-86.205
X156.062Y-116.005
X156.862Y-86.205
X157.862Y-86.205
X158.862Y-86.205
X162.963Y-116.105
X163.963Y-116.105
X164.963Y-116.105
X165.963Y-116.105
T3
X175.407Y-105.355
X175.407Y-108.855
T4
X132.232Y-100.105
X132.232Y-103.105
T5
X132.662Y-87.205
X132.662Y-115.205
X176.562Y-87.205
X176.562Y-115.205
T0
M30
